<svg xmlns="http://www.w3.org/2000/svg" width="48" height="48" viewBox="0 0 48 48">
    <path fill="#C8D4E8" fill-rule="evenodd" d="M24 17.6A6.3 6.3 0 1 1 24 5a6.3 6.3 0 0 1 0 12.6zm-1.68 2.1h3.36a8.82 8.82 0 0 1 8.82 8.82V42.8h-21V28.52a8.82 8.82 0 0 1 8.82-8.82zM9.3 21.8a4.2 4.2 0 1 1 0-8.4 4.2 4.2 0 0 1 0 8.4zm29.4 0a4.2 4.2 0 1 1 0-8.4 4.2 4.2 0 0 1 0 8.4zm-27.3 6.72v7.98H3v-8.4a4.2 4.2 0 0 1 4.2-4.2h4.2a4.2 4.2 0 0 1 1.218.21 8.715 8.715 0 0 0-1.218 4.41zm29.4-4.62a4.2 4.2 0 0 1 4.2 4.2v8.4h-8.4v-7.98a8.715 8.715 0 0 0-1.218-4.41 4.2 4.2 0 0 1 1.218-.21h4.2z"/>
</svg>
