<svg xmlns="http://www.w3.org/2000/svg" width="48" height="48" viewBox="0 0 48 48">
    <g fill="#C8D4E8" fill-rule="evenodd">
        <path d="M33.6 14.4v-12l12.194 12.05L33.6 14.4zm3.6 12H15.6a1.2 1.2 0 0 1 0-2.4h21.6a1.2 1.2 0 0 1 0 2.4zm0 4.8H15.6a1.2 1.2 0 0 1 0-2.4h21.6a1.2 1.2 0 0 1 0 2.4zm0 4.8H15.6a1.2 1.2 0 0 1 0-2.4h21.6a1.2 1.2 0 0 1 0 2.4zM15.6 19.2h9.6a1.2 1.2 0 0 1 0 2.4h-9.6a1.2 1.2 0 0 1 0-2.4zM33.6 0H14.405A4.804 4.804 0 0 0 9.6 4.805v31.24c0 2.655 2.15 4.755 4.805 4.755H43.2c2.652 0 4.8-2.098 4.8-4.75V14.4L33.6 0z"/>
        <path d="M12.006 43.2C9.35 43.2 7.2 41.074 7.2 38.42V7.2H4.806A4.804 4.804 0 0 0 0 12.005v31.24C.001 45.9 2.151 48 4.806 48H33.6c2.65 0 4.8-2.098 4.8-4.75v-.05H12.006z"/>
    </g>
</svg>
