<svg xmlns="http://www.w3.org/2000/svg" width="48" height="48" viewBox="0 0 48 48">
    <path fill="#C8D4E8" fill-rule="evenodd" d="M45 15.818H3V8a2 2 0 0 1 2-2h38a2 2 0 0 1 2 2v7.818zm0 1.637V40a2 2 0 0 1-2 2H5a2 2 0 0 1-2-2V17.455h42zm-8.83 6.891l-5.863 6.03c-.4-.33-.908-.529-1.46-.529-.896 0-1.674.52-2.065 1.28l-4.936-2.82v-.02c0-1.325-1.045-2.4-2.333-2.4-1.289 0-2.334 1.075-2.334 2.4 0 .194.023.382.065.562l-5.558 4.446a2.286 2.286 0 0 0-1.507-.568c-1.288 0-2.333 1.075-2.333 2.4 0 1.326 1.045 2.4 2.333 2.4 1.29 0 2.334-1.074 2.334-2.4 0-.3-.054-.587-.152-.852l5.443-4.354a2.298 2.298 0 0 0 1.709.766c.859 0 1.61-.477 2.015-1.189l4.987 2.85c.051 1.279 1.075 2.3 2.331 2.3 1.289 0 2.333-1.075 2.333-2.4 0-.318-.06-.621-.168-.899l5.983-6.154c.348.211.753.332 1.185.332 1.29 0 2.334-1.074 2.334-2.4 0-1.325-1.045-2.4-2.334-2.4-1.288 0-2.333 1.075-2.333 2.4 0 .445.118.862.323 1.22zM7 10.091a.77.77 0 0 0-.77.77v.915c0 .425.345.77.77.77h30.282V10.09H7zm31.538 0v2.454H41a.77.77 0 0 0 .77-.769v-.916a.77.77 0 0 0-.77-.77h-2.462z"/>
</svg>
