<svg id="Layer_1" data-name="Layer 1" xmlns="http://www.w3.org/2000/svg" xmlns:xlink="http://www.w3.org/1999/xlink" viewBox="0 0 3740.26 5216.96"><defs><style>.cls-1{fill:none;}.cls-2{font-size:60px;}.cls-13,.cls-15,.cls-2{fill:#414042;}.cls-13,.cls-2{font-family:Gotham;}.cls-3{clip-path:url(#clip-path);}.cls-4{fill:#ef3c67;}.cls-5{fill:#df355e;}.cls-6{fill:#e6e7e8;}.cls-7{fill:#485895;}.cls-8{fill:#fff;}.cls-9{fill:#f16588;}.cls-10{fill:#bcbec0;}.cls-11{fill:#231f20;}.cls-12{fill:#ecebe9;}.cls-13{font-size:405.43px;}.cls-14{fill:#3e8ede;}</style><clipPath id="clip-path" transform="translate(1337.76 -154.82)"><rect class="cls-1" x="89.3" y="111.88" width="890.16" height="1115.23"/></clipPath></defs><title>TIBCO Labs (head)</title><text class="cls-2" transform="translate(2207.14 602.43)">TM</text><g class="cls-3"><path class="cls-4" d="M160.62,853.44C219,666.31,820,659.52,895.78,860.83c53.09,140.8,26.54,371.86-25.9,551-37,125.62-86.64,225.67-130.6,250.44-66.47,37.34-321.29,77.29-440.63-10-39.71-29.16-74.75-106.84-101.72-204.3C143,1252.86,121.76,978.26,160.62,853.44Z" transform="translate(1337.76 -154.82)"/><path class="cls-4" d="M-318.77,4307.16c2.9,1.57,16.92,11,36.26,25.14H-282c39.16,47.14,71.55,91.92,71.55,91.92s72.52,412.44,48.35,589.19l-78.32,29.07s-14-15.71-35.29-42.42C-187.28,4715.67-311.52,4329.16-318.77,4307.16Z" transform="translate(1337.76 -154.82)"/><path class="cls-5" d="M-318.77,4307.16c2.9,1.57,16.92,11,36.26,25.14H-282c56.08,38.5,155.67,106.84,164.37,111.56,12.09,6.28,161,477.64,209.33,693.68,0,0-132.95,46.35-378.54-104.48,4.35-11,7.74-22,11.12-33C-187.28,4715.67-311.52,4329.16-318.77,4307.16Z" transform="translate(1337.76 -154.82)"/><path class="cls-5" d="M1397.52,4307.16c-3,1.57-17.67,11-37.87,25.14h-0.51c-58.57,38.5-162.58,106.84-171.67,111.56-12.62,6.28-168.13,477.64-218.63,693.68,0,0,138.85,46.35,395.34-104.48-4.55-11-8.08-22-11.62-33C1260.19,4715.67,1389.95,4329.16,1397.52,4307.16Z" transform="translate(1337.76 -154.82)"/><path class="cls-4" d="M1397.52,4307.16c-3.52,1.57-20.51,11-44,25.14H1353c-47.47,47.14-86.73,91.92-86.73,91.92s-87.9,412.44-58.6,589.19l94.93,29.07s17-15.71,42.78-42.42C1238.13,4715.67,1388.73,4329.16,1397.52,4307.16Z" transform="translate(1337.76 -154.82)"/><path class="cls-6" d="M132.78,4436.2S57.69,4523.54-70.74,4553a360.57,360.57,0,0,1-46.43,7.74,351.44,351.44,0,0,1-54.67,1.86c-80.36-3.41-143.91-35.93-191.33-84.55-37.21-38.4-64.22-86.72-81.67-139.06a385.13,385.13,0,0,1-12.85-46.15c-4.28-17,69.13-151.05,67.81-168.09a173.45,173.45,0,0,1-2-18.27v-1.55l0.66,0.31,9.88,3.41,405.1,288.57Z" transform="translate(1337.76 -154.82)"/><path class="cls-7" d="M-457.69,4292.8c-3.59-43.92,22.68-130.71,67.81-168.09,3-5,6.26-9.91,8.56-16.1l514.1,327.59S57.69,4523.54-70.74,4553C-45.39,4532.83-173,4271.69-457.69,4292.8Z" transform="translate(1337.76 -154.82)"/><path class="cls-6" d="M132.78,4436.2S57.69,4523.54-70.74,4553a360.57,360.57,0,0,1-46.43,7.74,351.44,351.44,0,0,1-54.67,1.86c-80.36-3.41-143.91-35.93-191.33-84.55,110.65,58.85,236.45,11.15,237.77-44.6,0.66-27.87,72.78-36.86,149.18-36.24Z" transform="translate(1337.76 -154.82)"/><path class="cls-8" d="M-388.91,4361.67c-19.1,8,27.44,103.24,116.63,139.37s149.57,14.19,152.31,0-74.92-8.61-150.94-46.46C-364.21,4408.13-376.56,4356.51-388.91,4361.67Z" transform="translate(1337.76 -154.82)"/><path class="cls-6" d="M940.34,4436.2s75.08,87.34,203.52,116.76a360.57,360.57,0,0,0,46.43,7.74,351.44,351.44,0,0,0,54.67,1.86c80.36-3.41,143.91-35.93,191.33-84.55,37.21-38.4,64.22-86.72,81.67-139.06a385.13,385.13,0,0,0,12.85-46.15c4.28-17-69.13-151.05-67.81-168.09a173.45,173.45,0,0,0,2-18.27v-1.55l-0.66.31-9.88,3.41-405.1,288.57Z" transform="translate(1337.76 -154.82)"/><path class="cls-7" d="M1530.81,4292.8c3.59-43.92-22.68-130.71-67.81-168.09-3-5-6.26-9.91-8.56-16.1L940.34,4436.2s75.08,87.34,203.52,116.76C1118.5,4532.83,1246.11,4271.69,1530.81,4292.8Z" transform="translate(1337.76 -154.82)"/><path class="cls-6" d="M940.34,4436.2s75.08,87.34,203.52,116.76a360.57,360.57,0,0,0,46.43,7.74,351.44,351.44,0,0,0,54.67,1.86c80.36-3.41,143.91-35.93,191.33-84.55-110.65,58.85-236.45,11.15-237.77-44.6-0.66-27.87-72.78-36.86-149.18-36.24Z" transform="translate(1337.76 -154.82)"/><path class="cls-8" d="M1462,4361.67c19.1,8-27.44,103.24-116.63,139.37s-149.57,14.19-152.31,0,74.92-8.61,150.94-46.46C1437.33,4408.13,1449.67,4356.51,1462,4361.67Z" transform="translate(1337.76 -154.82)"/><path class="cls-5" d="M1969.19,2497.33a26.86,26.86,0,0,1,1.17,6.72c61.53,297.6,64.46,786.26,60.95,1041.63-1.17,102.72-3.52,168-3.52,168h166.43s4.06-990.27-73.87-1406.92C2120.35,2306.76,1881.29,2081.64,1969.19,2497.33Z" transform="translate(1337.76 -154.82)"/><path class="cls-4" d="M2031.31,3545.67c28.71-19.2,58-51.84,58-51.84s0-745-44.53-1044.51L1970.36,2504C2031.9,2801.65,2034.83,3290.31,2031.31,3545.67Z" transform="translate(1337.76 -154.82)"/><path class="cls-6" d="M1975.46,2343.34c157.6,0,286.91-113.65,300.51-258.54-23.24-135-147.71-238.11-297.82-238.11-157.6,0-286.91,113.65-300.51,258.54C1700.88,2240.24,1825.34,2343.34,1975.46,2343.34Z" transform="translate(1337.76 -154.82)"/><path class="cls-7" d="M1978.15,1846.69c150.11,0,274.57,103.1,297.82,238.11,0.78-8.33,1.25-16.74,1.25-25.26,0-156.74-135.11-283.8-301.77-283.8s-301.77,127.06-301.77,283.8a268.94,268.94,0,0,0,3.95,45.69C1691.24,1960.33,1820.55,1846.69,1978.15,1846.69Z" transform="translate(1337.76 -154.82)"/><path class="cls-5" d="M-908.66,2497.33a26.82,26.82,0,0,0-1.17,6.72c-61.53,297.6-64.47,786.26-60.95,1041.63,1.17,102.72,3.52,168,3.52,168h-166.43s-32-900.09,108.19-1446.06C-1025.5,2267.61-820.76,2081.64-908.66,2497.33Z" transform="translate(1337.76 -154.82)"/><path class="cls-7" d="M-885,1853.44c152.95,0,279.23,107,299,245.79a269.19,269.19,0,0,0,2.77-38c0-156.74-135.11-283.8-301.77-283.8s-301.77,127.06-301.77,283.8a269.22,269.22,0,0,0,2.77,38C-1164.21,1960.48-1037.92,1853.44-885,1853.44Z" transform="translate(1337.76 -154.82)"/><path class="cls-6" d="M-885,2345c152.95,0,279.23-107,299-245.8-19.76-138.76-146-245.79-299-245.79s-279.23,107-299,245.8C-1164.21,2238-1037.92,2345-885,2345Z" transform="translate(1337.76 -154.82)"/><rect class="cls-4" x="442.2" y="1604.12" width="371.8" height="612.72" rx="90.82" ry="90.82"/><rect class="cls-4" x="2945.11" y="1604.12" width="371.8" height="612.72" rx="90.82" ry="90.82"/><path class="cls-5" d="M1119.56,3787.46c242-38.7,429-98.11,550.75-145.07,72.11-210.05,131.09-440.25,170.75-668.51v-1.1c81.46-473.42,79.7-939.13-62.12-1197.62-130.1-237-371.54-379.73-643.45-458-191.63-55.66-397.91-78.81-590.71-81H520.18c-192.8,2.21-399.67,25.35-590.71,80.47-271.91,78.81-513.35,221.56-642.86,458.54-150,273.91-143.57,780.41-46.88,1282.49,37.53,194.93,88.83,389.46,149.82,569.66,303.16,99,606.44,162,903.87,187.56C576,3839.16,853.94,3829.94,1119.56,3787.46Z" transform="translate(1337.76 -154.82)"/><path class="cls-5" d="M286.06,3890.57c-284.84-24.48-574.74-82.5-864.66-172.84,34.17,93.13,70.9,181.53,109.57,263.07C-365.3,4198-248.09,4367.15-127.38,4448.17c35.75,23.7,82,46.3,141.82,66.13,115.44,38.58,280.7,66.14,518,71.65,237.34-5.51,403.18-33.07,518.62-71.65,59.77-19.84,106.07-42.44,141.82-66.13,117.79-79.36,233.23-242.5,335.2-453.59a4.7,4.7,0,0,0,.59-2.75c38-79.06,74.06-164.71,107.76-255-123.51,43.49-292.93,91.88-503.37,125.53C860.59,3906,575.6,3915.47,286.06,3890.57Z" transform="translate(1337.76 -154.82)"/><rect class="cls-8" x="1585.44" y="696.02" width="570.13" height="258.46" rx="102.96" ry="102.96"/><path class="cls-4" d="M-970.78,3545.67c-28.71-19.2-58-51.84-58-51.84s0-745,44.54-1044.51l74.43,54.72C-971.36,2801.65-974.3,3290.31-970.78,3545.67Z" transform="translate(1337.76 -154.82)"/><path class="cls-6" d="M200.09,5258.34c-9.38,137.78-976.89,152.66-981.58,30.31a141.59,141.59,0,0,1,7.62-51.26c40.44-129,241.44-261.79,470-262.34C-44.87,4973.95,209.46,5120.55,200.09,5258.34Z" transform="translate(1337.76 -154.82)"/><path class="cls-7" d="M200.09,5258.34c-9.38,137.78-976.89,152.66-981.58,30.31a141.59,141.59,0,0,1,7.62-51.26c93.76,119,633.49,106.92,763.58-2.75,146.5-124.56-111.35-243.61-293.6-259.58C-44.87,4973.95,209.46,5120.55,200.09,5258.34Z" transform="translate(1337.76 -154.82)"/><path class="cls-8" d="M-574.33,5124.13c10.36,58.46,256.38-34.45,227.08-68.89S-581.66,5082.8-574.33,5124.13Z" transform="translate(1337.76 -154.82)"/><path class="cls-6" d="M860.44,5258.34c9.38,137.78,976.89,152.66,981.58,30.31a141.58,141.58,0,0,0-7.61-51.26c-40.44-129-241.44-261.79-470-262.34C1105.4,4973.95,851.07,5120.55,860.44,5258.34Z" transform="translate(1337.76 -154.82)"/><path class="cls-7" d="M860.44,5258.34c9.38,137.78,976.89,152.66,981.58,30.31a141.58,141.58,0,0,0-7.61-51.26c-93.77,119-633.49,106.92-763.58-2.75-146.5-124.56,111.34-243.61,293.6-259.58C1105.4,4973.95,851.07,5120.55,860.44,5258.34Z" transform="translate(1337.76 -154.82)"/><path class="cls-8" d="M1634.87,5124.13c-10.36,58.46-256.38-34.45-227.08-68.89S1642.19,5082.8,1634.87,5124.13Z" transform="translate(1337.76 -154.82)"/><path class="cls-8" d="M2213.56,3670.52c51.28,0,80.58,213.56,29.3,220.45S2213.56,3670.52,2213.56,3670.52Z" transform="translate(1337.76 -154.82)"/><path class="cls-4" d="M-713.33,1775.16c129.51-237,370.95-379.73,642.86-458.54,191-55.11,397.91-78.26,590.71-80.47h24.61c192.8,2.21,399.08,25.35,590.71,81,271.91,78.27,513.35,221,643.45,458,250.81,458,64.46,1563-250.23,2216.67,253.16-738.52,383.84-1789.54,52.16-2253.59-358.64-502.64-1765.09-434-2102,34.45-276,383.67-184.6,1507.63,52.15,2208.12C-780.14,3326.06-963,2230.4-713.33,1775.16Z" transform="translate(1337.76 -154.82)"/><path class="cls-9" d="M1339.49,4025.44c-127,303.13-253.94,376.61-351.61,404.17S607,4484.73,489.76,4480.13c234.41-36.74,454.16-82.67,566.49-142.38C1136.46,4295.12,1290.65,4117.3,1339.49,4025.44Z" transform="translate(1337.76 -154.82)"/><path class="cls-7" d="M-1044.52,3544.59c69.87,0,127.56,48.9,136.58,112.28a123,123,0,0,0,1.27-17.36c0-71.6-61.72-129.65-137.85-129.65s-137.85,58-137.85,129.65a123,123,0,0,0,1.27,17.36C-1172.08,3593.49-1114.39,3544.59-1044.52,3544.59Z" transform="translate(1337.76 -154.82)"/><path class="cls-10" d="M-1044.52,3769.15c69.87,0,127.56-48.9,136.58-112.28-9-63.39-66.72-112.28-136.58-112.28s-127.56,48.9-136.58,112.28C-1172.08,3720.26-1114.39,3769.15-1044.52,3769.15Z" transform="translate(1337.76 -154.82)"/><path class="cls-5" d="M-1335.46,4648.37c0,16.09,4.6,217.28,27.58,257.51s183.83,48.28,183.83,48.28L-1193,4680.56Z" transform="translate(1337.76 -154.82)"/><path class="cls-5" d="M-1271.12,4757c4.6,12.07,68.94,253.49,165.46,245.44s91.92-197.16,91.92-197.16Z" transform="translate(1337.76 -154.82)"/><path class="cls-5" d="M-1068.9,4801.27s116,208.22,212.57,184.08C-739.9,4956.23-816.12,4757-816.12,4757Z" transform="translate(1337.76 -154.82)"/><path class="cls-5" d="M-774.76,4443.9s188.44,80.47,202.22,185.09-206.82,88.52-206.82,88.52Z" transform="translate(1337.76 -154.82)"/><path class="cls-6" d="M-839.41,3919.1C-851,3840.95-863.6,3761.86-876.8,3682c-1.29-7.71-10-16.36-19.4-18.93q-160.55-43.9-321.1,0c-9.39,2.57-18.11,11.22-19.4,18.93-13.22,79.94-25.85,159.11-37.43,237.33C-1245.43,3911.08-1071.4,3866.41-839.41,3919.1Z" transform="translate(1337.76 -154.82)"/><path class="cls-6" d="M-833.13,3962.26l-12.24-2.84c-238.27-55.21-417.37-1-419.14-.45l-16.12,5c-37.76,263.4-62.5,515.71-56.13,750.66,0.47,16,13.08,35.12,27.79,41.54q252.21,108.33,504.43,0c14.71-6.42,27.32-25.5,27.79-41.54C-770.37,4479.18-795.22,4226.28-833.13,3962.26Z" transform="translate(1337.76 -154.82)"/><path class="cls-7" d="M-845.37,3959.42V3960q-3.09-21.54-6.28-43.16c-232-52.68-383.55-8.48-412.25-.24q-3.32,22.39-6.5,44.67l5.89-2.3C-1262.73,3958.42-1083.64,3904.21-845.37,3959.42Z" transform="translate(1337.76 -154.82)"/><ellipse class="cls-7" cx="437.16" cy="3695.81" rx="19.32" ry="18.17"/><ellipse class="cls-7" cx="459.83" cy="3871.07" rx="19.32" ry="18.17"/><ellipse class="cls-7" cx="285.6" cy="3675.11" rx="19.32" ry="18.17"/><ellipse class="cls-7" cx="289.19" cy="3855.87" rx="19.32" ry="18.17"/><ellipse class="cls-7" cx="138.31" cy="3688.63" rx="19.32" ry="18.17"/><ellipse class="cls-7" cx="122.14" cy="3869.38" rx="19.32" ry="18.17"/><path class="cls-7" d="M2109.25,3544.59c-69.87,0-127.56,48.9-136.58,112.28a123,123,0,0,1-1.27-17.36c0-71.6,61.72-129.65,137.85-129.65s137.85,58,137.85,129.65a123,123,0,0,1-1.27,17.36C2236.81,3593.49,2179.12,3544.59,2109.25,3544.59Z" transform="translate(1337.76 -154.82)"/><path class="cls-10" d="M2109.25,3769.15c-69.87,0-127.56-48.9-136.58-112.28,9-63.39,66.72-112.28,136.58-112.28s127.56,48.9,136.58,112.28C2236.81,3720.26,2179.12,3769.15,2109.25,3769.15Z" transform="translate(1337.76 -154.82)"/><path class="cls-5" d="M2400.19,4648.37c0,16.09-4.6,217.28-27.58,257.51s-183.83,48.28-183.83,48.28l68.94-273.61Z" transform="translate(1337.76 -154.82)"/><path class="cls-5" d="M2335.85,4757c-4.6,12.07-68.94,253.49-165.46,245.44s-91.92-197.16-91.92-197.16Z" transform="translate(1337.76 -154.82)"/><path class="cls-5" d="M2133.62,4801.27s-116,208.22-212.57,184.08c-116.42-29.12-40.21-228.34-40.21-228.34Z" transform="translate(1337.76 -154.82)"/><path class="cls-5" d="M1839.48,4443.9S1651,4524.37,1637.26,4629s206.82,88.52,206.82,88.52Z" transform="translate(1337.76 -154.82)"/><path class="cls-6" d="M1904.14,3919.1c11.57-78.15,24.19-157.24,37.39-237.1,1.29-7.71,10-16.36,19.4-18.93q160.55-43.9,321.1,0c9.39,2.57,18.11,11.22,19.4,18.93,13.22,79.94,25.85,159.11,37.43,237.33C2310.16,3911.08,2136.13,3866.41,1904.14,3919.1Z" transform="translate(1337.76 -154.82)"/><path class="cls-6" d="M1897.86,3962.26l12.24-2.84c238.27-55.21,417.37-1,419.14-.45l16.12,5c37.76,263.4,62.5,515.71,56.13,750.66-0.47,16-13.08,35.12-27.79,41.54q-252.21,108.33-504.43,0c-14.71-6.42-27.32-25.5-27.79-41.54C1835.1,4479.18,1860,4226.28,1897.86,3962.26Z" transform="translate(1337.76 -154.82)"/><path class="cls-7" d="M1910.1,3959.42V3960q3.09-21.54,6.28-43.16c232-52.68,383.55-8.48,412.25-.24q3.32,22.39,6.5,44.67l-5.89-2.3C2327.46,3958.42,2148.37,3904.21,1910.1,3959.42Z" transform="translate(1337.76 -154.82)"/><ellipse class="cls-7" cx="3303.09" cy="3695.81" rx="19.32" ry="18.17"/><ellipse class="cls-7" cx="3280.42" cy="3871.07" rx="19.32" ry="18.17"/><ellipse class="cls-7" cx="3454.66" cy="3675.11" rx="19.32" ry="18.17"/><ellipse class="cls-7" cx="3451.06" cy="3855.87" rx="19.32" ry="18.17"/><ellipse class="cls-7" cx="3601.95" cy="3688.63" rx="19.32" ry="18.17"/><ellipse class="cls-7" cx="3618.11" cy="3869.38" rx="19.32" ry="18.17"/><ellipse class="cls-11" cx="1710.78" cy="850.69" rx="27.27" ry="44.94"/><ellipse class="cls-11" cx="2030.23" cy="850.69" rx="27.27" ry="44.94"/><path class="cls-7" d="M1119.56,3787.46c-265.62,42.48-543.57,51.7-826.14,27.41C-4,3789.3-307.29,3726.31-610.45,3627.31q15.52,45.86,31.85,90.42c289.92,90.34,579.81,148.36,864.66,172.84,289.54,24.89,574.53,15.42,847-28.18,210.43-33.65,379.85-82,503.37-125.53q17.35-46.46,33.84-94.48C1548.54,3689.35,1361.52,3748.76,1119.56,3787.46Z" transform="translate(1337.76 -154.82)"/><ellipse class="cls-12" cx="1875.79" cy="2474.01" rx="1007.68" ry="947.7"/><text class="cls-13" transform="translate(1278.52 2771.59) scale(1.06 1)">LABS</text><path class="cls-14" d="M127.67,2287.26v201.11h-33V2287.26H8.78v-29.52H213.6v29.52H127.67Z" transform="translate(1337.76 -154.82)"/><path class="cls-14" d="M252.83,2488.37V2257.74h33v230.64h-33Z" transform="translate(1337.76 -154.82)"/><path class="cls-14" d="M518.37,2423.06c0,39.11-27.86,65.31-91,65.31H343.77V2257.74H425c59.25,0,85.54,25.09,85.54,61.26,0,23.62-14.52,41-42,50.56C501.11,2377.3,518.37,2397.23,518.37,2423.06Zm-90.64-136.54H377.12v72.33h45.51c35.31,0,54.54-14.76,54.54-37.27C477.17,2299.44,459.92,2286.52,427.73,2286.52Zm-2.35,100.74H377.12v72.33h53.36c36.49,0,54.55-12.18,54.55-36.17C485,2396.85,459.92,2387.26,425.38,2387.26Z" transform="translate(1337.76 -154.82)"/><path class="cls-14" d="M735.81,2299.8c-21.58-13.28-41.59-19.56-67.09-19.56-53.37,0-89.07,34.69-89.07,91.89s36.1,93.73,89.86,93.73c26.29,0,52.18-10,69.44-22.51l5.49,31.37c-20,11.81-48.26,19.19-75.72,19.19-71.81,0-122.82-46.86-122.82-120.3s51.4-121.41,122.82-121.41c27.86,0,57.67,7.38,77.68,19.2Z" transform="translate(1337.76 -154.82)"/><path class="cls-14" d="M948.46,2268.47a115.64,115.64,0,0,0-11.34-5.76c-32.05,57.8-90.31,126.55-167.37,165.67a108.23,108.23,0,0,0,16.71,25.38C852.72,2410.91,914.08,2339.25,948.46,2268.47Z" transform="translate(1337.76 -154.82)"/><path class="cls-14" d="M934.2,2261.48c-15.84-6.49-33.79-10-53.27-10-72.09,0-123,52.33-123,121.23a139.3,139.3,0,0,0,3.79,32.8C835.46,2377.27,901,2315,934.2,2261.48Z" transform="translate(1337.76 -154.82)"/><path class="cls-14" d="M951.23,2270.09c-37.83,87.48-83.92,149.39-142.79,202.63,19.89,13,44.65,20.13,72.5,20.13,72.1,0,123-52.69,123-121.6C1003.95,2325.6,983.85,2290.19,951.23,2270.09Z" transform="translate(1337.76 -154.82)"/><path class="cls-14" d="M1003.95,2262.45v-0.18c0-16.26,14-30,31.67-30,17.83,0,31.67,13.52,31.67,29.79v0.17c0,16.26-14,30-31.67,30C1017.78,2292.23,1003.95,2278.71,1003.95,2262.45Zm59.7-.18v-0.17c0-14.55-12-26.53-28-26.53-15.84,0-28,12.16-28,26.7v0.18c0,14.54,12,26.53,28,26.53C1051.46,2289,1063.65,2276.83,1063.65,2262.27Zm-40.41-15.75h14.56c7.1,0,12.38,3.25,12.38,9.58,0,5-3.1,8-7.47,9.25l8.56,11.47h-7.46l-7.64-10.44h-6.74v10.44h-6.19v-30.3Zm14,15.06c4.19,0,6.55-2.05,6.55-5,0-3.25-2.37-5-6.55-5h-7.83v9.92h7.83Z" transform="translate(1337.76 -154.82)"/><ellipse class="cls-7" cx="1881.06" cy="3861.03" rx="19.32" ry="18.17"/><ellipse class="cls-7" cx="1434.24" cy="3810.35" rx="19.32" ry="18.17"/><ellipse class="cls-7" cx="1039.07" cy="3732.64" rx="19.32" ry="18.17"/><ellipse class="cls-7" cx="2350.32" cy="3823.87" rx="19.32" ry="18.17"/><ellipse class="cls-7" cx="2745.49" cy="3740.51" rx="19.32" ry="18.17"/><ellipse class="cls-7" cx="1863.98" cy="3590.74" rx="19.32" ry="18.17"/><ellipse class="cls-7" cx="1385.74" cy="3523.17" rx="19.32" ry="18.17"/><ellipse class="cls-7" cx="898.97" cy="3418.43" rx="19.32" ry="18.17"/><ellipse class="cls-7" cx="2368.28" cy="3563.71" rx="19.32" ry="18.17"/><ellipse class="cls-7" cx="2806.56" cy="3439.55" rx="19.32" ry="18.17"/><ellipse class="cls-4" cx="2031.14" cy="77.87" rx="82.79" ry="77.87"/><path class="cls-4" d="M705.33,802.79h-25V569.66a12.5,12.5,0,0,1,10.1-12.27l81-15.87L597.48,487a12.5,12.5,0,0,1,.86-24.09L775,421l-85.94-26.94a12.5,12.5,0,0,1-8.76-11.93V296h25v77l120.57,37.8a12.5,12.5,0,0,1-.86,24.09L648.35,476.74,825.89,532.4a12.5,12.5,0,0,1-1.34,24.19L705.33,580V802.79Z" transform="translate(1337.76 -154.82)"/></g><path class="cls-15" d="M885.09,722.09H871.77v-6.84h34.08v6.84H892.53v35.16h-7.44V722.09Z" transform="translate(1337.76 -154.82)"/><path class="cls-15" d="M913.65,715.25h7.86l12.78,19.86,12.78-19.86h7.86v42h-7.38V727.13l-13.26,19.8h-0.24l-13.14-19.68v30h-7.26v-42Z" transform="translate(1337.76 -154.82)"/><g class="cls-3"><path class="cls-4" d="M160.62,853.44C219,666.31,820,659.52,895.78,860.83c53.09,140.8,26.54,371.86-25.9,551-37,125.62-86.64,225.67-130.6,250.44-66.47,37.34-321.29,77.29-440.63-10-39.71-29.16-74.75-106.84-101.72-204.3C143,1252.86,121.76,978.26,160.62,853.44Z" transform="translate(1337.76 -154.82)"/><path class="cls-4" d="M-318.77,4307.16c2.9,1.57,16.92,11,36.26,25.14H-282c39.16,47.14,71.55,91.92,71.55,91.92s72.52,412.44,48.35,589.19l-78.32,29.07s-14-15.71-35.29-42.42C-187.28,4715.67-311.52,4329.16-318.77,4307.16Z" transform="translate(1337.76 -154.82)"/><path class="cls-5" d="M-318.77,4307.16c2.9,1.57,16.92,11,36.26,25.14H-282c56.08,38.5,155.67,106.84,164.37,111.56,12.09,6.28,161,477.64,209.33,693.68,0,0-132.95,46.35-378.54-104.48,4.35-11,7.74-22,11.12-33C-187.28,4715.67-311.52,4329.16-318.77,4307.16Z" transform="translate(1337.76 -154.82)"/><path class="cls-5" d="M1397.52,4307.16c-3,1.57-17.67,11-37.87,25.14h-0.51c-58.57,38.5-162.58,106.84-171.67,111.56-12.62,6.28-168.13,477.64-218.63,693.68,0,0,138.85,46.35,395.34-104.48-4.55-11-8.08-22-11.62-33C1260.19,4715.67,1389.95,4329.16,1397.52,4307.16Z" transform="translate(1337.76 -154.82)"/><path class="cls-4" d="M1397.52,4307.16c-3.52,1.57-20.51,11-44,25.14H1353c-47.47,47.14-86.73,91.92-86.73,91.92s-87.9,412.44-58.6,589.19l94.93,29.07s17-15.71,42.78-42.42C1238.13,4715.67,1388.73,4329.16,1397.52,4307.16Z" transform="translate(1337.76 -154.82)"/><path class="cls-6" d="M132.78,4436.2S57.69,4523.54-70.74,4553a360.57,360.57,0,0,1-46.43,7.74,351.44,351.44,0,0,1-54.67,1.86c-80.36-3.41-143.91-35.93-191.33-84.55-37.21-38.4-64.22-86.72-81.67-139.06a385.13,385.13,0,0,1-12.85-46.15c-4.28-17,69.13-151.05,67.81-168.09a173.45,173.45,0,0,1-2-18.27v-1.55l0.66,0.31,9.88,3.41,405.1,288.57Z" transform="translate(1337.76 -154.82)"/><path class="cls-7" d="M-457.69,4292.8c-3.59-43.92,22.68-130.71,67.81-168.09,3-5,6.26-9.91,8.56-16.1l514.1,327.59S57.69,4523.54-70.74,4553C-45.39,4532.83-173,4271.69-457.69,4292.8Z" transform="translate(1337.76 -154.82)"/><path class="cls-6" d="M132.78,4436.2S57.69,4523.54-70.74,4553a360.57,360.57,0,0,1-46.43,7.74,351.44,351.44,0,0,1-54.67,1.86c-80.36-3.41-143.91-35.93-191.33-84.55,110.65,58.85,236.45,11.15,237.77-44.6,0.66-27.87,72.78-36.86,149.18-36.24Z" transform="translate(1337.76 -154.82)"/><path class="cls-8" d="M-388.91,4361.67c-19.1,8,27.44,103.24,116.63,139.37s149.57,14.19,152.31,0-74.92-8.61-150.94-46.46C-364.21,4408.13-376.56,4356.51-388.91,4361.67Z" transform="translate(1337.76 -154.82)"/><path class="cls-6" d="M940.34,4436.2s75.08,87.34,203.52,116.76a360.57,360.57,0,0,0,46.43,7.74,351.44,351.44,0,0,0,54.67,1.86c80.36-3.41,143.91-35.93,191.33-84.55,37.21-38.4,64.22-86.72,81.67-139.06a385.13,385.13,0,0,0,12.85-46.15c4.28-17-69.13-151.05-67.81-168.09a173.45,173.45,0,0,0,2-18.27v-1.55l-0.66.31-9.88,3.41-405.1,288.57Z" transform="translate(1337.76 -154.82)"/><path class="cls-7" d="M1530.81,4292.8c3.59-43.92-22.68-130.71-67.81-168.09-3-5-6.26-9.91-8.56-16.1L940.34,4436.2s75.08,87.34,203.52,116.76C1118.5,4532.83,1246.11,4271.69,1530.81,4292.8Z" transform="translate(1337.76 -154.82)"/><path class="cls-6" d="M940.34,4436.2s75.08,87.34,203.52,116.76a360.57,360.57,0,0,0,46.43,7.74,351.44,351.44,0,0,0,54.67,1.86c80.36-3.41,143.91-35.93,191.33-84.55-110.65,58.85-236.45,11.15-237.77-44.6-0.66-27.87-72.78-36.86-149.18-36.24Z" transform="translate(1337.76 -154.82)"/><path class="cls-8" d="M1462,4361.67c19.1,8-27.44,103.24-116.63,139.37s-149.57,14.19-152.31,0,74.92-8.61,150.94-46.46C1437.33,4408.13,1449.67,4356.51,1462,4361.67Z" transform="translate(1337.76 -154.82)"/><path class="cls-5" d="M1969.19,2497.33a26.86,26.86,0,0,1,1.17,6.72c61.53,297.6,64.46,786.26,60.95,1041.63-1.17,102.72-3.52,168-3.52,168h166.43s4.06-990.27-73.87-1406.92C2120.35,2306.76,1881.29,2081.64,1969.19,2497.33Z" transform="translate(1337.76 -154.82)"/><path class="cls-4" d="M2031.31,3545.67c28.71-19.2,58-51.84,58-51.84s0-745-44.53-1044.51L1970.36,2504C2031.9,2801.65,2034.83,3290.31,2031.31,3545.67Z" transform="translate(1337.76 -154.82)"/><path class="cls-6" d="M1975.46,2343.34c157.6,0,286.91-113.65,300.51-258.54-23.24-135-147.71-238.11-297.82-238.11-157.6,0-286.91,113.65-300.51,258.54C1700.88,2240.24,1825.34,2343.34,1975.46,2343.34Z" transform="translate(1337.76 -154.82)"/><path class="cls-7" d="M1978.15,1846.69c150.11,0,274.57,103.1,297.82,238.11,0.78-8.33,1.25-16.74,1.25-25.26,0-156.74-135.11-283.8-301.77-283.8s-301.77,127.06-301.77,283.8a268.94,268.94,0,0,0,3.95,45.69C1691.24,1960.33,1820.55,1846.69,1978.15,1846.69Z" transform="translate(1337.76 -154.82)"/><path class="cls-5" d="M-908.66,2497.33a26.82,26.82,0,0,0-1.17,6.72c-61.53,297.6-64.47,786.26-60.95,1041.63,1.17,102.72,3.52,168,3.52,168h-166.43s-32-900.09,108.19-1446.06C-1025.5,2267.61-820.76,2081.64-908.66,2497.33Z" transform="translate(1337.76 -154.82)"/><path class="cls-7" d="M-885,1853.44c152.95,0,279.23,107,299,245.79a269.19,269.19,0,0,0,2.77-38c0-156.74-135.11-283.8-301.77-283.8s-301.77,127.06-301.77,283.8a269.22,269.22,0,0,0,2.77,38C-1164.21,1960.48-1037.92,1853.44-885,1853.44Z" transform="translate(1337.76 -154.82)"/><path class="cls-6" d="M-885,2345c152.95,0,279.23-107,299-245.8-19.76-138.76-146-245.79-299-245.79s-279.23,107-299,245.8C-1164.21,2238-1037.92,2345-885,2345Z" transform="translate(1337.76 -154.82)"/><rect class="cls-4" x="442.2" y="1604.12" width="371.8" height="612.72" rx="90.82" ry="90.82"/><rect class="cls-4" x="2945.11" y="1604.12" width="371.8" height="612.72" rx="90.82" ry="90.82"/><path class="cls-5" d="M1119.56,3787.46c242-38.7,429-98.11,550.75-145.07,72.11-210.05,131.09-440.25,170.75-668.51v-1.1c81.46-473.42,79.7-939.13-62.12-1197.62-130.1-237-371.54-379.73-643.45-458-191.63-55.66-397.91-78.81-590.71-81H520.18c-192.8,2.21-399.67,25.35-590.71,80.47-271.91,78.81-513.35,221.56-642.86,458.54-150,273.91-143.57,780.41-46.88,1282.49,37.53,194.93,88.83,389.46,149.82,569.66,303.16,99,606.44,162,903.87,187.56C576,3839.16,853.94,3829.94,1119.56,3787.46Z" transform="translate(1337.76 -154.82)"/><path class="cls-5" d="M286.06,3890.57c-284.84-24.48-574.74-82.5-864.66-172.84,34.17,93.13,70.9,181.53,109.57,263.07C-365.3,4198-248.09,4367.15-127.38,4448.17c35.75,23.7,82,46.3,141.82,66.13,115.44,38.58,280.7,66.14,518,71.65,237.34-5.51,403.18-33.07,518.62-71.65,59.77-19.84,106.07-42.44,141.82-66.13,117.79-79.36,233.23-242.5,335.2-453.59a4.7,4.7,0,0,0,.59-2.75c38-79.06,74.06-164.71,107.76-255-123.51,43.49-292.93,91.88-503.37,125.53C860.59,3906,575.6,3915.47,286.06,3890.57Z" transform="translate(1337.76 -154.82)"/><rect class="cls-8" x="1585.44" y="696.02" width="570.13" height="258.46" rx="102.96" ry="102.96"/><path class="cls-4" d="M-970.78,3545.67c-28.71-19.2-58-51.84-58-51.84s0-745,44.54-1044.51l74.43,54.72C-971.36,2801.65-974.3,3290.31-970.78,3545.67Z" transform="translate(1337.76 -154.82)"/><path class="cls-6" d="M200.09,5258.34c-9.38,137.78-976.89,152.66-981.58,30.31a141.59,141.59,0,0,1,7.62-51.26c40.44-129,241.44-261.79,470-262.34C-44.87,4973.95,209.46,5120.55,200.09,5258.34Z" transform="translate(1337.76 -154.82)"/><path class="cls-7" d="M200.09,5258.34c-9.38,137.78-976.89,152.66-981.58,30.31a141.59,141.59,0,0,1,7.62-51.26c93.76,119,633.49,106.92,763.58-2.75,146.5-124.56-111.35-243.61-293.6-259.58C-44.87,4973.95,209.46,5120.55,200.09,5258.34Z" transform="translate(1337.76 -154.82)"/><path class="cls-8" d="M-574.33,5124.13c10.36,58.46,256.38-34.45,227.08-68.89S-581.66,5082.8-574.33,5124.13Z" transform="translate(1337.76 -154.82)"/><path class="cls-6" d="M860.44,5258.34c9.38,137.78,976.89,152.66,981.58,30.31a141.58,141.58,0,0,0-7.61-51.26c-40.44-129-241.44-261.79-470-262.34C1105.4,4973.95,851.07,5120.55,860.44,5258.34Z" transform="translate(1337.76 -154.82)"/><path class="cls-7" d="M860.44,5258.34c9.38,137.78,976.89,152.66,981.58,30.31a141.58,141.58,0,0,0-7.61-51.26c-93.77,119-633.49,106.92-763.58-2.75-146.5-124.56,111.34-243.61,293.6-259.58C1105.4,4973.95,851.07,5120.55,860.44,5258.34Z" transform="translate(1337.76 -154.82)"/><path class="cls-8" d="M1634.87,5124.13c-10.36,58.46-256.38-34.45-227.08-68.89S1642.19,5082.8,1634.87,5124.13Z" transform="translate(1337.76 -154.82)"/><path class="cls-8" d="M2213.56,3670.52c51.28,0,80.58,213.56,29.3,220.45S2213.56,3670.52,2213.56,3670.52Z" transform="translate(1337.76 -154.82)"/><path class="cls-4" d="M-713.33,1775.16c129.51-237,370.95-379.73,642.86-458.54,191-55.11,397.91-78.26,590.71-80.47h24.61c192.8,2.21,399.08,25.35,590.71,81,271.91,78.27,513.35,221,643.45,458,250.81,458,64.46,1563-250.23,2216.67,253.16-738.52,383.84-1789.54,52.16-2253.59-358.64-502.64-1765.09-434-2102,34.45-276,383.67-184.6,1507.63,52.15,2208.12C-780.14,3326.06-963,2230.4-713.33,1775.16Z" transform="translate(1337.76 -154.82)"/><path class="cls-9" d="M1339.49,4025.44c-127,303.13-253.94,376.61-351.61,404.17S607,4484.73,489.76,4480.13c234.41-36.74,454.16-82.67,566.49-142.38C1136.46,4295.12,1290.65,4117.3,1339.49,4025.44Z" transform="translate(1337.76 -154.82)"/><path class="cls-7" d="M-1044.52,3544.59c69.87,0,127.56,48.9,136.58,112.28a123,123,0,0,0,1.27-17.36c0-71.6-61.72-129.65-137.85-129.65s-137.85,58-137.85,129.65a123,123,0,0,0,1.27,17.36C-1172.08,3593.49-1114.39,3544.59-1044.52,3544.59Z" transform="translate(1337.76 -154.82)"/><path class="cls-10" d="M-1044.52,3769.15c69.87,0,127.56-48.9,136.58-112.28-9-63.39-66.72-112.28-136.58-112.28s-127.56,48.9-136.58,112.28C-1172.08,3720.26-1114.39,3769.15-1044.52,3769.15Z" transform="translate(1337.76 -154.82)"/><path class="cls-5" d="M-1335.46,4648.37c0,16.09,4.6,217.28,27.58,257.51s183.83,48.28,183.83,48.28L-1193,4680.56Z" transform="translate(1337.76 -154.82)"/><path class="cls-5" d="M-1271.12,4757c4.6,12.07,68.94,253.49,165.46,245.44s91.92-197.16,91.92-197.16Z" transform="translate(1337.76 -154.82)"/><path class="cls-5" d="M-1068.9,4801.27s116,208.22,212.57,184.08C-739.9,4956.23-816.12,4757-816.12,4757Z" transform="translate(1337.76 -154.82)"/><path class="cls-5" d="M-774.76,4443.9s188.44,80.47,202.22,185.09-206.82,88.52-206.82,88.52Z" transform="translate(1337.76 -154.82)"/><path class="cls-6" d="M-839.41,3919.1C-851,3840.95-863.6,3761.86-876.8,3682c-1.29-7.71-10-16.36-19.4-18.93q-160.55-43.9-321.1,0c-9.39,2.57-18.11,11.22-19.4,18.93-13.22,79.94-25.85,159.11-37.43,237.33C-1245.43,3911.08-1071.4,3866.41-839.41,3919.1Z" transform="translate(1337.76 -154.82)"/><path class="cls-6" d="M-833.13,3962.26l-12.24-2.84c-238.27-55.21-417.37-1-419.14-.45l-16.12,5c-37.76,263.4-62.5,515.71-56.13,750.66,0.47,16,13.08,35.12,27.79,41.54q252.21,108.33,504.43,0c14.71-6.42,27.32-25.5,27.79-41.54C-770.37,4479.18-795.22,4226.28-833.13,3962.26Z" transform="translate(1337.76 -154.82)"/><path class="cls-7" d="M-845.37,3959.42V3960q-3.09-21.54-6.28-43.16c-232-52.68-383.55-8.48-412.25-.24q-3.32,22.39-6.5,44.67l5.89-2.3C-1262.73,3958.42-1083.64,3904.21-845.37,3959.42Z" transform="translate(1337.76 -154.82)"/><ellipse class="cls-7" cx="437.16" cy="3695.81" rx="19.32" ry="18.17"/><ellipse class="cls-7" cx="459.83" cy="3871.07" rx="19.32" ry="18.17"/><ellipse class="cls-7" cx="285.6" cy="3675.11" rx="19.32" ry="18.17"/><ellipse class="cls-7" cx="289.19" cy="3855.87" rx="19.32" ry="18.17"/><ellipse class="cls-7" cx="138.31" cy="3688.63" rx="19.32" ry="18.17"/><ellipse class="cls-7" cx="122.14" cy="3869.38" rx="19.32" ry="18.17"/><path class="cls-7" d="M2109.25,3544.59c-69.87,0-127.56,48.9-136.58,112.28a123,123,0,0,1-1.27-17.36c0-71.6,61.72-129.65,137.85-129.65s137.85,58,137.85,129.65a123,123,0,0,1-1.27,17.36C2236.81,3593.49,2179.12,3544.59,2109.25,3544.59Z" transform="translate(1337.76 -154.82)"/><path class="cls-10" d="M2109.25,3769.15c-69.87,0-127.56-48.9-136.58-112.28,9-63.39,66.72-112.28,136.58-112.28s127.56,48.9,136.58,112.28C2236.81,3720.26,2179.12,3769.15,2109.25,3769.15Z" transform="translate(1337.76 -154.82)"/><path class="cls-5" d="M2400.19,4648.37c0,16.09-4.6,217.28-27.58,257.51s-183.83,48.28-183.83,48.28l68.94-273.61Z" transform="translate(1337.76 -154.82)"/><path class="cls-5" d="M2335.85,4757c-4.6,12.07-68.94,253.49-165.46,245.44s-91.92-197.16-91.92-197.16Z" transform="translate(1337.76 -154.82)"/><path class="cls-5" d="M2133.62,4801.27s-116,208.22-212.57,184.08c-116.42-29.12-40.21-228.34-40.21-228.34Z" transform="translate(1337.76 -154.82)"/><path class="cls-5" d="M1839.48,4443.9S1651,4524.37,1637.26,4629s206.82,88.52,206.82,88.52Z" transform="translate(1337.76 -154.82)"/><path class="cls-6" d="M1904.14,3919.1c11.57-78.15,24.19-157.24,37.39-237.1,1.29-7.71,10-16.36,19.4-18.93q160.55-43.9,321.1,0c9.39,2.57,18.11,11.22,19.4,18.93,13.22,79.94,25.85,159.11,37.43,237.33C2310.16,3911.08,2136.13,3866.41,1904.14,3919.1Z" transform="translate(1337.76 -154.82)"/><path class="cls-6" d="M1897.86,3962.26l12.24-2.84c238.27-55.21,417.37-1,419.14-.45l16.12,5c37.76,263.4,62.5,515.71,56.13,750.66-0.47,16-13.08,35.12-27.79,41.54q-252.21,108.33-504.43,0c-14.71-6.42-27.32-25.5-27.79-41.54C1835.1,4479.18,1860,4226.28,1897.86,3962.26Z" transform="translate(1337.76 -154.82)"/><path class="cls-7" d="M1910.1,3959.42V3960q3.09-21.54,6.28-43.16c232-52.68,383.55-8.48,412.25-.24q3.32,22.39,6.5,44.67l-5.89-2.3C2327.46,3958.42,2148.37,3904.21,1910.1,3959.42Z" transform="translate(1337.76 -154.82)"/><ellipse class="cls-7" cx="3303.09" cy="3695.81" rx="19.32" ry="18.17"/><ellipse class="cls-7" cx="3280.42" cy="3871.07" rx="19.32" ry="18.17"/><ellipse class="cls-7" cx="3454.66" cy="3675.11" rx="19.32" ry="18.17"/><ellipse class="cls-7" cx="3451.06" cy="3855.87" rx="19.32" ry="18.17"/><ellipse class="cls-7" cx="3601.95" cy="3688.63" rx="19.32" ry="18.17"/><ellipse class="cls-7" cx="3618.11" cy="3869.38" rx="19.32" ry="18.17"/><ellipse class="cls-11" cx="1710.78" cy="850.69" rx="27.27" ry="44.94"/><ellipse class="cls-11" cx="2030.23" cy="850.69" rx="27.27" ry="44.94"/><path class="cls-7" d="M1119.56,3787.46c-265.62,42.48-543.57,51.7-826.14,27.41C-4,3789.3-307.29,3726.31-610.45,3627.31q15.52,45.86,31.85,90.42c289.92,90.34,579.81,148.36,864.66,172.84,289.54,24.89,574.53,15.42,847-28.18,210.43-33.65,379.85-82,503.37-125.53q17.35-46.46,33.84-94.48C1548.54,3689.35,1361.52,3748.76,1119.56,3787.46Z" transform="translate(1337.76 -154.82)"/><ellipse class="cls-12" cx="1875.79" cy="2474.01" rx="1007.68" ry="947.7"/><text class="cls-13" transform="translate(1278.52 2771.59) scale(1.06 1)">LABS</text><path class="cls-14" d="M127.67,2287.26v201.11h-33V2287.26H8.78v-29.52H213.6v29.52H127.67Z" transform="translate(1337.76 -154.82)"/><path class="cls-14" d="M252.83,2488.37V2257.74h33v230.64h-33Z" transform="translate(1337.76 -154.82)"/><path class="cls-14" d="M518.37,2423.06c0,39.11-27.86,65.31-91,65.31H343.77V2257.74H425c59.25,0,85.54,25.09,85.54,61.26,0,23.62-14.52,41-42,50.56C501.11,2377.3,518.37,2397.23,518.37,2423.06Zm-90.64-136.54H377.12v72.33h45.51c35.31,0,54.54-14.76,54.54-37.27C477.17,2299.44,459.92,2286.52,427.73,2286.52Zm-2.35,100.74H377.12v72.33h53.36c36.49,0,54.55-12.18,54.55-36.17C485,2396.85,459.92,2387.26,425.38,2387.26Z" transform="translate(1337.76 -154.82)"/><path class="cls-14" d="M735.81,2299.8c-21.58-13.28-41.59-19.56-67.09-19.56-53.37,0-89.07,34.69-89.07,91.89s36.1,93.73,89.86,93.73c26.29,0,52.18-10,69.44-22.51l5.49,31.37c-20,11.81-48.26,19.19-75.72,19.19-71.81,0-122.82-46.86-122.82-120.3s51.4-121.41,122.82-121.41c27.86,0,57.67,7.38,77.68,19.2Z" transform="translate(1337.76 -154.82)"/><path class="cls-14" d="M948.46,2268.47a115.64,115.64,0,0,0-11.34-5.76c-32.05,57.8-90.31,126.55-167.37,165.67a108.23,108.23,0,0,0,16.71,25.38C852.72,2410.91,914.08,2339.25,948.46,2268.47Z" transform="translate(1337.76 -154.82)"/><path class="cls-14" d="M934.2,2261.48c-15.84-6.49-33.79-10-53.27-10-72.09,0-123,52.33-123,121.23a139.3,139.3,0,0,0,3.79,32.8C835.46,2377.27,901,2315,934.2,2261.48Z" transform="translate(1337.76 -154.82)"/><path class="cls-14" d="M951.23,2270.09c-37.83,87.48-83.92,149.39-142.79,202.63,19.89,13,44.65,20.13,72.5,20.13,72.1,0,123-52.69,123-121.6C1003.95,2325.6,983.85,2290.19,951.23,2270.09Z" transform="translate(1337.76 -154.82)"/><path class="cls-14" d="M1003.95,2262.45v-0.18c0-16.26,14-30,31.67-30,17.83,0,31.67,13.52,31.67,29.79v0.17c0,16.26-14,30-31.67,30C1017.78,2292.23,1003.95,2278.71,1003.95,2262.45Zm59.7-.18v-0.17c0-14.55-12-26.53-28-26.53-15.84,0-28,12.16-28,26.7v0.18c0,14.54,12,26.53,28,26.53C1051.46,2289,1063.65,2276.83,1063.65,2262.27Zm-40.41-15.75h14.56c7.1,0,12.38,3.25,12.38,9.58,0,5-3.1,8-7.47,9.25l8.56,11.47h-7.46l-7.64-10.44h-6.74v10.44h-6.19v-30.3Zm14,15.06c4.19,0,6.55-2.05,6.55-5,0-3.25-2.37-5-6.55-5h-7.83v9.92h7.83Z" transform="translate(1337.76 -154.82)"/><ellipse class="cls-7" cx="1881.06" cy="3861.03" rx="19.32" ry="18.17"/><ellipse class="cls-7" cx="1434.24" cy="3810.35" rx="19.32" ry="18.17"/><ellipse class="cls-7" cx="1039.07" cy="3732.64" rx="19.32" ry="18.17"/><ellipse class="cls-7" cx="2350.32" cy="3823.87" rx="19.32" ry="18.17"/><ellipse class="cls-7" cx="2745.49" cy="3740.51" rx="19.32" ry="18.17"/><ellipse class="cls-7" cx="1863.98" cy="3590.74" rx="19.32" ry="18.17"/><ellipse class="cls-7" cx="1385.74" cy="3523.17" rx="19.32" ry="18.17"/><ellipse class="cls-7" cx="898.97" cy="3418.43" rx="19.32" ry="18.17"/><ellipse class="cls-7" cx="2368.28" cy="3563.71" rx="19.32" ry="18.17"/><ellipse class="cls-7" cx="2806.56" cy="3439.55" rx="19.32" ry="18.17"/><ellipse class="cls-4" cx="2031.14" cy="77.87" rx="82.79" ry="77.87"/><path class="cls-4" d="M705.33,802.79h-25V569.66a12.5,12.5,0,0,1,10.1-12.27l81-15.87L597.48,487a12.5,12.5,0,0,1,.86-24.09L775,421l-85.94-26.94a12.5,12.5,0,0,1-8.76-11.93V296h25v77l120.57,37.8a12.5,12.5,0,0,1-.86,24.09L648.35,476.74,825.89,532.4a12.5,12.5,0,0,1-1.34,24.19L705.33,580V802.79Z" transform="translate(1337.76 -154.82)"/></g></svg>