<svg width="21px" height="18px" viewBox="0 0 21 18" version="1.1" xmlns="http://www.w3.org/2000/svg" xmlns:xlink="http://www.w3.org/1999/xlink">
    <title>Foundations/system icon/pl-icon-community</title>
    <g id="Symbols" stroke="none" stroke-width="1" fill="none" fill-rule="evenodd">
        <g id="🎨-Color" transform="translate(-1.880952, -3.000000)" fill="#0081CB">
            <path d="M12.8,10 C15.1195959,10 17,11.8804041 17,14.2 L17,21 L7,21 L7,14.2 C7,11.8804041 8.88040405,10 11.2,10 L12.8,10 Z M20,12 C21.1045695,12 22,12.8954305 22,14 L22,14 L22,18 L18,18 L18,14.2 C17.9971348,13.4608387 17.7969015,12.735856 17.42,12.1 C17.6073439,12.0382465 17.8027931,12.0045483 18,12 L18,12 Z M6,12 C6.19720692,12.0045483 6.39265605,12.0382465 6.58,12.1 C6.20309855,12.735856 6.00286523,13.4608387 6,14.2 L6,14.2 L6,18 L2,18 L2,14 C2,12.8954305 2.8954305,12 4,12 L4,12 Z M5,7 C6.1045695,7 7,7.8954305 7,9 C7,10.1045695 6.1045695,11 5,11 C3.8954305,11 3,10.1045695 3,9 C3,7.8954305 3.8954305,7 5,7 Z M19,7 C20.1045695,7 21,7.8954305 21,9 C21,10.1045695 20.1045695,11 19,11 C17.8954305,11 17,10.1045695 17,9 C17,7.8954305 17.8954305,7 19,7 Z M12,3 C13.6568542,3 15,4.34314575 15,6 C15,7.65685425 13.6568542,9 12,9 C10.3431458,9 9,7.65685425 9,6 C9,4.34314575 10.3431458,3 12,3 Z"></path>
        </g>
    </g>
</svg>