<svg width="20px" height="20px" viewBox="0 0 20 20" version="1.1" xmlns="http://www.w3.org/2000/svg" xmlns:xlink="http://www.w3.org/1999/xlink"><g id="Symbols" stroke="none" stroke-width="1" fill="none" fill-rule="evenodd"><g id="🎨-Color" transform="translate(-2.000000, -2.000000)" fill="#0081CB"><path d="M16,2 L8,2 C6.8954305,2 6,2.8954305 6,4 L6,17 C6,18.1045695 6.8954305,19 8,19 L20,19 C21.1045695,19 22,18.1045695 22,17 L22,8 L16,2 Z M8.5,10 L12.5,10 C12.7761424,10 13,10.2238576 13,10.5 C13,10.7761424 12.7761424,11 12.5,11 L8.5,11 C8.22385763,11 8,10.7761424 8,10.5 C8,10.2238576 8.22385763,10 8.5,10 Z M17.5,17 L8.5,17 C8.22385763,17 8,16.7761424 8,16.5 C8,16.2238576 8.22385763,16 8.5,16 L17.5,16 C17.7761424,16 18,16.2238576 18,16.5 C18,16.7761424 17.7761424,17 17.5,17 Z M17.5,15 L8.5,15 C8.22385763,15 8,14.7761424 8,14.5 C8,14.2238576 8.22385763,14 8.5,14 L17.5,14 C17.7761424,14 18,14.2238576 18,14.5 C18,14.7761424 17.7761424,15 17.5,15 Z M17.5,13 L8.5,13 C8.22385763,13 8,12.7761424 8,12.5 C8,12.2238576 8.22385763,12 8.5,12 L17.5,12 C17.7761424,12 18,12.2238576 18,12.5 C18,12.7761424 17.7761424,13 17.5,13 Z M5,5 L5,18 C5,19.1045695 5.8954305,20 7,20 L7,20 L18,20 L17.9945143,20.1492623 C17.9181651,21.1841222 17.0543618,22 16,22 L16,22 L4,22 C2.8954305,22 2,21.1045695 2,20 L2,20 L2,7 C2,5.8954305 2.8954305,5 4,5 L4,5 L5,5 Z M16,3 L21.08,8 L16,8 L16,3 Z"></path></g></g></svg>