<svg xmlns="http://www.w3.org/2000/svg" width="17" height="20" viewBox="0 0 17 20">
  <path fill="#0081CB" d="M8.18181818,20 C3.49090909,18.8545455 0,14.1363636 0,9.09090909 L0,0 C1.85406953,0.606060606 3.38118361,0.909090909 4.58134225,0.909090909 C5.7815009,0.909090909 6.98165954,0.606060606 8.18181818,3.67564428e-16 C9.12173722,0.606060606 10.3441345,0.909090909 11.8490099,0.909090909 C13.3538854,0.909090909 14.8587609,0.606060606 16.3636364,0 L16.3636364,9.09090909 C16.3636364,14.1363636 12.8727273,18.8545455 8.18181818,20 Z M8.18181818,18.1818182 C11.5909091,17.2727273 14.5454545,13.2181818 14.5454545,9.29090909 L14.5454545,2.09090909 L3.48421678,14.5663657 C3.9802662,15.2961162 4.61784565,15.9703577 5.39695512,16.5890903 C6.17606458,17.2078229 7.10435227,17.7387322 8.18181818,18.1818182 Z"/>
</svg>
