<?xml version="1.0" encoding="UTF-8" standalone="no"?>
<svg width="12px" height="16px" viewBox="0 0 12 16" version="1.1" xmlns="http://www.w3.org/2000/svg" xmlns:xlink="http://www.w3.org/1999/xlink">
    <!-- Generator: sketchtool 39 (31667) - http://www.bohemiancoding.com/sketch -->
    <title>DA1993B0-7B6B-42BA-814D-097AD18D0114</title>
    <desc>Created with sketchtool.</desc>
    <defs></defs>
    <g id="Case-Management-" stroke="none" stroke-width="1" fill="none" fill-rule="evenodd">
        <g id="8.-Tibco-Case-Management---Detail-Page--collapsed" transform="translate(-75.000000, -366.000000)">
            <g id="location" transform="translate(69.000000, 362.000000)">
                <g id="Group-3" transform="translate(6.000000, 4.000000)">
                    <g id="Page-1">
                        <path d="M5.66894679,7.39006239 C4.65859817,7.39006239 3.83966239,6.57112661 3.83966239,5.56077798 C3.83966239,4.55057615 4.65859817,3.73164037 5.66894679,3.73164037 C6.67929541,3.73164037 7.49823119,4.55057615 7.49823119,5.56077798 C7.49823119,6.57112661 6.67929541,7.39006239 5.66894679,7.39006239 M9.53346055,1.69626422 L9.53346055,1.69626422 C7.36949725,-0.467699083 3.8608,-0.467699083 1.69654312,1.69626422 C-0.253401835,3.64620917 -0.472998165,7.3178422 1.18190092,9.52408073 L5.61492844,15.9264294 L10.0481028,9.52408073 C11.702855,7.3178422 11.4834055,3.64620917 9.53346055,1.69626422" id="Fill-1" fill="#0081CB"></path>
                        <path d="M5.66894679,7.39006239 C4.65859817,7.39006239 3.83966239,6.57112661 3.83966239,5.56077798 C3.83966239,4.55057615 4.65859817,3.73164037 5.66894679,3.73164037 C6.67929541,3.73164037 7.49823119,4.55057615 7.49823119,5.56077798 C7.49823119,6.57112661 6.67929541,7.39006239 5.66894679,7.39006239 L5.66894679,7.39006239 Z M9.53346055,1.69626422 L9.53346055,1.69626422 C7.36949725,-0.467699083 3.8608,-0.467699083 1.69654312,1.69626422 C-0.253401835,3.64620917 -0.472998165,7.3178422 1.18190092,9.52408073 L5.61492844,15.9264294 L10.0481028,9.52408073 C11.702855,7.3178422 11.4834055,3.64620917 9.53346055,1.69626422 L9.53346055,1.69626422 Z" id="Stroke-3"></path>
                    </g>
                </g>
            </g>
        </g>
    </g>
</svg>