<?xml version="1.0" encoding="UTF-8" standalone="no"?>
<svg width="18px" height="18px" viewBox="0 0 16 22" version="1.1" xmlns="http://www.w3.org/2000/svg" xmlns:xlink="http://www.w3.org/1999/xlink">
    <!-- Generator: sketchtool 39 (31667) - http://www.bohemiancoding.com/sketch -->
    <title>icon-ic_calc_task</title>
    <desc>icon-ic_calc_task</desc>
    <defs></defs>

	<g id="icon-ic_calc_task" fill="#0081CB">
		<title>icon-ic_calc_task</title>
		<path class="path1" d="M0,1.991155 C0,0.891470458 0.894513756,0 1.99406028,0 L14.0059397,0 C15.1072288,0 16,0.889673948 16,1.991155 L16,20.008845 C16,21.1085295 15.1054862,22 14.0059397,22 L1.99406028,22 C0.892771196,22 0,21.1103261 0,20.008845 L0,1.991155 Z M11.02,7.6 L11.02,10.8933333 L14.3133333,10.8933333 L14.3133333,7.6 L11.02,7.6 Z M6.46,7.6 L6.46,10.8933333 L9.75333333,10.8933333 L9.75333333,7.6 L6.46,7.6 Z M1.9,7.6 L1.9,10.8933333 L5.19333333,10.8933333 L5.19333333,7.6 L1.9,7.6 Z M11.02,12.16 L11.02,15.4533333 L14.3133333,15.4533333 L14.3133333,12.16 L11.02,12.16 Z M6.46,12.16 L6.46,15.4533333 L9.75333333,15.4533333 L9.75333333,12.16 L6.46,12.16 Z M1.9,12.16 L1.9,15.4533333 L5.19333333,15.4533333 L5.19333333,12.16 L1.9,12.16 Z M11.02,16.72 L11.02,20.0133333 L14.3133333,20.0133333 L14.3133333,16.72 L11.02,16.72 Z M6.46,16.72 L6.46,20.0133333 L9.75333333,20.0133333 L9.75333333,16.72 L6.46,16.72 Z M1.9,16.72 L1.9,20.0133333 L5.19333333,20.0133333 L5.19333333,16.72 L1.9,16.72 Z M1.90321615,1.92560547 L1.90321615,6.23227214 L14.4432161,6.23227214 L14.4432161,1.92560547 L1.90321615,1.92560547 Z" id="Combined-Shape"></path>
	</g>
</svg>
