<svg xmlns="http://www.w3.org/2000/svg" xmlns:xlink="http://www.w3.org/1999/xlink" width="24" height="24" viewBox="0 0 24 24">
  <path class="svg-content" d="M17.188 19.158c0 .54-.42.978-.938.978s-.938-.438-.938-.978v-8.8c0-.54.42-.977.938-.977.517 0 .938.438.938.978v8.799zm-3.75 0c0 .54-.42.978-.938.978s-.938-.438-.938-.978v-8.8c0-.54.42-.977.938-.977s.938.438.938.978v8.799zm-3.75 0c0 .54-.42.978-.938.978s-.938-.438-.938-.978v-8.8c0-.54.42-.977.938-.977s.938.438.938.978v8.799zM5.938 7.335v12.743c0 1.08.839 1.922 1.875 1.922h9.375c1.035 0 1.875-.842 1.875-1.922V7.335H5.938zm10.312-3.38h-7.5C8.75 2.875 9.59 2 10.625 2h3.75c1.036 0 1.875.875 1.875 1.955zm2.813 1.956H5.938C5.42 5.91 5 5.473 5 4.933s.42-.978.938-.978h13.125c.517 0 .937.438.937.978s-.42.978-.938.978"/>
  <path d="M0 0h24v24H0z" fill="none"/>
</svg>
