<svg id="ic-database" xmlns="http://www.w3.org/2000/svg" xmlns:xlink="http://www.w3.org/1999/xlink" viewBox="0 0 24 24">
  <defs>
    <style>
      .cls-1 {
        fill: none;
        clip-rule: evenodd;
      }

      .cls-2 {
        clip-path: url(#clip-path);
      }

      .cls-3 {
        clip-path: url(#clip-path-2);
      }

      .cls-4 {
        fill: #0081cb;
      }
    </style>
    <clipPath id="clip-path">
      <path class="cls-1" d="M-284,390.5h-12a2.49,2.49,0,0,1-1.76-.73,2.49,2.49,0,0,1-.73-1.76V376a2.49,2.49,0,0,1,.73-1.76,2.49,2.49,0,0,1,1.76-.73h12a2.49,2.49,0,0,1,1.76.73,2.49,2.49,0,0,1,.73,1.76v12a2.49,2.49,0,0,1-.73,1.76A2.49,2.49,0,0,1-284,390.5Z"/>
    </clipPath>
    <clipPath id="clip-path-2">
      <path class="cls-1" d="M-298,376a2,2,0,0,1,2-2h12a2,2,0,0,1,2,2v12a2,2,0,0,1-2,2h-12a2,2,0,0,1-2-2Zm-10-12h36v36h-36Z"/>
    </clipPath>
  </defs>
  <title>ic-database-blue</title>
  <g>
    <ellipse class="cls-4" cx="12" cy="5" rx="9" ry="3"/>
    <path class="cls-4" d="M12,10C7,10,3,8.66,3,7v5c0,1.66,4,3,9,3s9-1.34,9-3V7C21,8.66,17,10,12,10Z"/>
    <path class="cls-4" d="M12,17c-5,0-9-1.34-9-3v5c0,1.66,4,3,9,3s9-1.34,9-3V14C21,15.66,17,17,12,17Z"/>
  </g>
</svg>
