<svg xmlns="http://www.w3.org/2000/svg" width="24" height="24" viewBox="0 0 24 24">
    <path class="svg-content" fill="#B6B6B6" fill-rule="evenodd" d="M24 20.273V21.5a2.5 2.5 0 0 1-2.5 2.5h-3.046a.751.751 0 0 0-.096-.163l-4.063-5.283 4.651-4.154L24 20.273zm0-2.3l-4.415-5.13a.75.75 0 0 0-1.068-.071l-5.14 4.59-6.642-8.636a.75.75 0 0 0-1.181-.01L0 15.696V2.5A2.5 2.5 0 0 1 2.5 0h19A2.5 2.5 0 0 1 24 2.5v15.473zM16.592 24H2.5A2.5 2.5 0 0 1 0 21.5v-3.394L6.13 10.4 16.593 24zm-2.59-14.25a3 3 0 1 0 0-6 3 3 0 0 0 0 6zm0-1.5a1.5 1.5 0 1 1 0-3 1.5 1.5 0 0 1 0 3z"/>
</svg>
