<svg xmlns="http://www.w3.org/2000/svg" width="14" height="14" viewBox="0 0 48 48">
    <path fill="<DYNAMICFILL>" fill-rule="evenodd" d="M42 42H6c-1.103 0-2-.898-2-2V26.61c4.43 2.623 10.208 3.96 15.729 4.422v1.504c0 1.326.948 2.4 2.118 2.4h4.764c1.17 0 2.118-1.074 2.118-2.4V31.04c6.16-.503 11.505-2.008 15.271-4.264v13.223c0 1.103-.897 2-2 2zM6 15.995h36c1.103 0 2 .898 2 2v3.583c-2.798 2.727-8.447 4.664-15.271 5.268v-1.511c0-1.326-.948-2.4-2.117-2.4h-4.765c-1.17 0-2.118 1.074-2.118 2.4v1.51c-6.651-.6-12.41-2.518-15.729-5.348v-3.501c0-1.103.897-2 2-2zm10.655-8.89c0-.063.023-.098.016-.106l14.944-.011s.04.033.04.117v4.89h-15v-4.89zM42 11.996h-6.345v-4.89C35.655 4.842 33.861 3 31.657 3H16.653c-2.204 0-3.998 1.842-3.998 4.106v4.89H6c-3.308 0-6 2.692-6 6V40c0 3.31 2.692 6 6 6h36c3.309 0 6-2.69 6-6V17.997c0-3.31-2.691-6.001-6-6.001z"/>
</svg>
