<!-- Generator: sketchtool 51.1 (57501) - http://www.bohemiancoding.com/sketch -->
<?xml version="1.0" encoding="UTF-8"?>
<svg width="24px" height="24px" viewBox="0 0 24 24" version="1.1" xmlns="http://www.w3.org/2000/svg" xmlns:xlink="http://www.w3.org/1999/xlink">

    <title>E97A6EF5-46B9-4739-BAB2-99627154D0BA</title>
    <desc>Created with sketchtool.</desc>
    <defs></defs>
    <g id="Symbols" stroke="none" stroke-width="1" fill="none" fill-rule="evenodd">
        <g id="ic-liveapps-sm" fill="#062E79">
            <path d="M21,20.4997221 L3,20.4997221 C2.4485,20.4997221 2,20.0511709 2,19.4996081 L2,12.8053453 C4.215,14.1167447 7.104,14.7848208 9.8645,15.0158472 L9.8645,15.7681829 C9.8645,16.4310084 10.3385,16.9683196 10.9235,16.9683196 L13.30575,16.9683196 C13.8905,16.9683196 14.3645,16.4310084 14.3645,15.7681829 L14.3645,15.0198476 C17.4445,14.7683189 20.117,14.0159832 22,12.8878547 L22,19.4996081 C22,20.0511709 21.5515,20.4997221 21,20.4997221 Z M3,7.4982405 L21,7.4982405 C21.5515,7.4982405 22,7.94679161 22,8.49835446 L22,10.2893085 C20.60075,11.653214 17.77625,12.6213243 14.3645,12.9236087 L14.3645,12.1677726 C14.3645,11.5049471 13.8905,10.9676358 13.30575,10.9676358 L10.9235,10.9676358 C10.3385,10.9676358 9.8645,11.5049471 9.8645,12.1677726 L9.8645,12.9226086 C6.539,12.6230745 3.65925,11.6639652 2,10.2488039 L2,8.49835446 C2,7.94679161 2.4485,7.4982405 3,7.4982405 Z M8.3275,3.05298394 C8.3275,3.02148035 8.339,3.00422839 8.3355,3.00022793 L15.80725,2.99447728 C15.80725,2.99472731 15.8275,3.01097916 15.8275,3.05298394 L15.8275,5.49801256 L8.3275,5.49801256 L8.3275,3.05298394 Z M21,5.49801256 L17.8275,5.49801256 L17.8275,3.05298394 C17.8275,1.92085493 16.93075,1 15.8285,1 L8.3265,1 C7.22425,1 6.3275,1.92085493 6.3275,3.05298394 L6.3275,5.49801256 L3,5.49801256 C1.34575,5.49801256 0,6.84391593 0,8.49835446 L0,19.4996081 C0,21.1540466 1.34575,22.49995 3,22.49995 L21,22.49995 C22.65425,22.49995 24,21.1540466 24,19.4996081 L24,8.49835446 C24,6.84391593 22.65425,5.49801256 21,5.49801256 Z" id="ic-liveapps"></path>
        </g>
    </g>
</svg>