<svg xmlns="http://www.w3.org/2000/svg" xmlns:xlink="http://www.w3.org/1999/xlink" width="16" height="16" viewBox="0 0 16 16">
  <path fill="#727272" id="a" d="M8.727 8.727H5.818a.727.727 0 1 1 0-1.454H8V5.09a.727.727 0 1 1 1.455 0V8a.727.727 0 0 1-.728.727zm-.242 5.755a6.46 6.46 0 0 0 2.23-.575l.753 1.304c-.912.44-1.92.711-2.983.775v-1.504zm-1.455-.054v1.514A8.001 8.001 0 0 1 8 0a7.982 7.982 0 0 1 6.5 3.347V2A.75.75 0 1 1 16 2v3a.75.75 0 0 1-.75.75H12a.75.75 0 1 1 0-1.5h1.304A6.484 6.484 0 0 0 8 1.5a6.5 6.5 0 0 0-.97 12.928zm4.93-1.273a6.536 6.536 0 0 0 1.513-1.647l1.3.75a8.043 8.043 0 0 1-2.057 2.205l-.756-1.308zm2.158-2.954A6.488 6.488 0 0 0 14.5 8 .75.75 0 1 1 16 8c0 1.046-.2 2.045-.566 2.96l-1.316-.76z"/>
  <path fill="none" d="M0 0h16v16H0z"/>
</svg>
