<svg xmlns="http://www.w3.org/2000/svg" xmlns:xlink="http://www.w3.org/1999/xlink" width="24" height="24" viewBox="0 0 24 24">
  <path class="svg-content" fill="#727272" d="M21.91 13.12a9.346 9.346 0 0 0 0-1.1 9.508 9.508 0 0 0 0-1.12 32.759 32.759 0 0 0-2.213-.307 7.42 7.42 0 0 0-1.306-3.087c.454-.578.998-1.264 1.342-1.805a9.436 9.436 0 0 0-.743-.849 9.453 9.453 0 0 0-.852-.74c-.49.343-1.18.867-1.814 1.336a7.49 7.49 0 0 0-3.028-1.246c0-.74-.181-1.588-.308-2.202h-2.176a32.34 32.34 0 0 0-.309 2.202 7.488 7.488 0 0 0-3.1 1.354c-.58-.45-1.27-.992-1.814-1.336-.298.23-.583.477-.852.74-.254.253-.49.524-.762.85l1.36 1.804a7.4 7.4 0 0 0-1.106 2.961c-.743 0-1.596.18-2.212.307a9.274 9.274 0 0 0 0 1.12 9.094 9.094 0 0 0 0 1.1c.616.109 1.487.235 2.212.307a7.402 7.402 0 0 0 1.251 3.015L4.12 18.23c.272.324.508.595.762.848s.526.487.852.758l1.814-1.354a7.471 7.471 0 0 0 3.028 1.246c0 .74.181 1.589.308 2.202a9.107 9.107 0 0 0 2.249 0c.109-.613.235-1.48.308-2.202a7.47 7.47 0 0 0 3.028-1.3l1.814 1.354c.326-.27.598-.505.852-.758.265-.268.513-.551.743-.849-.344-.487-.87-1.173-1.341-1.805a7.42 7.42 0 0 0 1.25-3.015c.744 0 1.596-.18 2.213-.307m-10.064 3.304a4.35 4.35 0 0 1-1.705-.343 4.451 4.451 0 0 1-2.339-2.31 4.477 4.477 0 0 1 0-3.413 4.451 4.451 0 0 1 2.34-2.31 4.534 4.534 0 0 1 3.427 0 4.451 4.451 0 0 1 2.32 2.31 4.477 4.477 0 0 1 0 3.412 4.451 4.451 0 0 1-2.32 2.311 4.387 4.387 0 0 1-1.723.343"/>
  <path fill="none" d="M0 0h24v24H0z"/>
</svg>
