<?xml version="1.0" encoding="UTF-8"?>
<svg width="48px" height="48px" viewBox="0 0 48 48" version="1.1" xmlns="http://www.w3.org/2000/svg" xmlns:xlink="http://www.w3.org/1999/xlink">
    <!-- Generator: sketchtool 51.1 (57501) - http://www.bohemiancoding.com/sketch -->
    <title>EBCCA156-217F-4BF2-B9AE-89A324E485CB</title>
    <desc>Created with sketchtool.</desc>
    <defs></defs>
    <g id="Icons" stroke="none" stroke-width="1" fill="none" fill-rule="evenodd">
        <g id="UI-Icons" transform="translate(-1159.000000, -384.000000)" fill="#062E79" fill-rule="nonzero">
            <g id="ic-spotfire" transform="translate(1159.000000, 384.000000)">
                <path d="M31.655908,37.8577116 C31.6187835,37.9325874 31.5686986,38.0002953 31.5079727,38.0576995 C30.0186764,39.0509358 28.3403185,39.725664 26.5781297,40.0395797 C25.9600776,40.1670374 25.331823,40.2386547 24.700951,40.2535668 C24.4690525,40.2655661 24.2351548,40.2735656 23.9992581,40.2735656 C23.7633613,40.2735656 23.5294636,40.2735656 23.2975651,40.2535668 C22.6666932,40.2386547 22.0384385,40.1670374 21.4203864,40.0395797 C19.6581976,39.725664 17.9798398,39.0509358 16.4905434,38.0576995 C16.4298491,38.0002673 16.3797686,37.9325654 16.3426081,37.8577116 L16.3426081,37.8757105 C16.3426081,38.0756985 16.3705959,38.5056725 16.4025819,39.1576331 C16.4112843,40.1848682 16.771857,41.1780523 17.4241349,41.971463 C17.7213044,42.3282281 18.0978654,42.6104129 18.5236538,42.7954132 L18.9394719,42.9814019 C19.1273897,43.0493978 19.3159738,43.1160604 19.5052244,43.1813898 C20.7873656,43.5886091 22.1242824,43.797012 23.4694898,43.7993525 L24.5370228,43.7993525 C25.8822302,43.797012 27.2191471,43.5886091 28.5012883,43.1813898 C28.6905388,43.1213935 28.879123,43.0547308 29.0670407,42.9814019 L29.4828588,42.7954132 C29.9086472,42.6104129 30.2852082,42.3282281 30.5823777,41.971463 C31.2346556,41.1780523 31.5952283,40.1848682 31.6039308,39.1576331 C31.6359168,38.5036726 31.6599063,38.0656991 31.6619054,37.8757105 L31.6619054,37.8577116 L31.655908,37.8577116 Z M28.0135017,45.1232725 C26.8981784,45.4558873 25.7408294,45.6262885 24.5770053,45.6292419 L23.4215108,45.6292419 C22.2576867,45.6262885 21.1003377,45.4558873 19.9850144,45.1232725 C19.9196684,45.1020458 19.8582213,45.0702975 19.803094,45.0292781 L19.803094,45.047277 L19.8250844,45.0912744 C20.3479711,46.870118 22.0111732,48.0669219 23.8633175,47.9970987 L24.1851767,47.9970987 C26.0235414,48.0511974 27.6666746,46.857011 28.1834273,45.0912744 L28.2054177,45.047277 L28.2054177,45.0292781 C28.1472452,45.0712842 28.082345,45.1030703 28.0135017,45.1232725 Z M39.440502,11.5493019 C38.2118114,8.22698136 35.6152604,5.59303051 32.3116211,4.31773901 C31.6784657,4.02511059 31.0242466,3.78043801 30.3544774,3.58578325 C28.4207231,3.04109155 26.4238709,2.7526457 24.4150761,2.72783511 L23.5854391,2.72783511 C21.5766444,2.7526457 19.5797922,3.04109155 17.6460378,3.58578325 C16.9762662,3.78043086 16.3220467,4.02510364 15.6888941,4.31773901 C12.3843501,5.59233242 9.78692567,8.22643056 8.55801413,11.5493019 C8.09229392,12.9677014 7.87914956,14.45689 7.92828965,15.9490359 C8.05342939,19.1784343 9.17030681,22.2908091 11.1268902,24.8624971 C11.4287581,25.3064703 11.7706085,25.758443 12.1724327,26.2444136 C12.5322753,26.6783874 12.8881196,27.0803631 13.2659542,27.5043375 L13.4658668,27.7383233 C13.629795,27.9383112 13.9556525,28.3202881 14.2955038,28.7982592 C14.8648102,29.6467696 15.2940987,30.5812968 15.5669475,31.5660919 C15.6332301,31.8081577 15.6852964,32.0538963 15.7228793,32.3020475 L15.7228793,33.4399787 C15.7228793,33.4519779 15.7228793,33.4739766 15.7228793,33.5039748 L15.7228793,33.5979691 C15.8655353,35.4784435 17.2354149,37.0372691 19.0814098,37.4197381 C19.3144881,37.5003865 19.5521331,37.5671659 19.7930984,37.619726 L19.8710643,37.6377249 C20.2309068,37.7437185 20.760675,37.8537119 20.760675,37.8537119 L20.7366855,37.8317132 L20.7166943,37.8137143 L20.7166943,37.801715 L20.6947039,37.801715 C20.5988668,37.6190578 20.526972,37.4248013 20.4807975,37.22375 L20.4807975,37.1977515 C20.456808,37.1097568 20.4368167,37.0277618 20.4208237,36.9617658 C20.3722617,36.7305623 20.3362249,36.4969023 20.312871,36.2618081 C20.2688902,35.8618323 20.2429016,35.40386 20.232906,34.8318945 C20.232906,34.6099079 20.232906,34.3739222 20.232906,34.1179377 L20.232906,32.9060109 C20.2556365,32.6124684 20.2556365,32.3176068 20.232906,32.0240643 C20.1500645,30.2470055 19.5588879,28.5311141 18.5296512,27.0803631 C18.3937107,26.8803752 18.30375,26.7623823 18.2917553,26.7463833 L18.2777614,26.7283844 C17.8119652,26.1124216 17.3181813,25.560455 16.8403903,25.0264872 C16.1838726,24.3220373 15.5760655,23.5736849 15.0211863,22.7866226 C13.4884627,20.8088263 12.6019693,18.4067104 12.4822971,15.9070385 C12.4212405,14.5715773 12.6681723,13.2399693 13.2039814,12.0152737 C14.1476214,10.1238325 15.7673659,8.65623324 17.7419958,7.90352226 L17.8019696,7.87552395 C18.2197025,7.68419657 18.6514373,7.52507644 19.0934045,7.39955272 C22.3062638,6.53033188 25.6922524,6.53033188 28.9051116,7.39955272 C29.3472483,7.5270227 29.7789869,7.68814998 30.1965465,7.88152359 L30.2585194,7.9095219 C32.2313608,8.66119746 33.8501851,10.1264683 34.7945348,12.0152737 C35.3323297,13.2360794 35.5826578,14.5641401 35.5262146,15.8970391 C35.4065424,18.396711 34.520049,20.7988269 32.9873255,22.7766232 C32.4324462,23.5636855 31.8246391,24.3120379 31.1681214,25.0164878 C30.6903305,25.5524554 30.1985457,26.1024222 29.7307503,26.718385 L29.7167565,26.7363839 C29.7047617,26.7523829 29.6148011,26.8683759 29.4788605,27.0703637 C28.4496238,28.5211147 27.8584473,30.2370061 27.7756058,32.0140649 C27.7528753,32.3076074 27.7528753,32.602469 27.7756058,32.8960115 L27.7756058,34.1079383 C27.7756058,34.3639228 27.7756058,34.5999086 27.7756058,34.8218951 C27.7656102,35.3938606 27.7396215,35.8598324 27.6956408,36.2518087 C27.6723023,36.4869049 27.6362653,36.7205657 27.587688,36.9517664 C27.571695,37.0177624 27.5517037,37.0997574 27.5277142,37.1877521 L27.5277142,37.2137506 C27.4815398,37.4148019 27.4096449,37.6090584 27.3138078,37.7917156 L27.2918175,37.7917156 L27.2918175,37.8037149 L27.2718262,37.8217138 L27.2478367,37.8437125 C27.2478367,37.8437125 27.7776049,37.7337191 28.1374475,37.6277255 L28.2154133,37.6097266 C28.4563787,37.5571665 28.6940236,37.4903872 28.927102,37.4097387 C30.7595312,37.0182197 32.1158115,35.4669029 32.2596439,33.5979691 L32.2596439,33.5139742 C32.2596439,33.483976 32.2596439,33.4639772 32.2596439,33.4499781 L32.2596439,32.3120468 C32.2972268,32.0638957 32.349293,31.8181571 32.4155756,31.5760913 C32.6884244,30.5912962 33.1177129,29.6567689 33.6870193,28.8082586 C34.0248715,28.3302875 34.3527281,27.9383112 34.5166563,27.7483227 L34.7165689,27.5143369 C35.0944036,27.0903625 35.4502479,26.6883868 35.8100904,26.254413 C36.2099155,25.7684424 36.553765,25.3164697 36.855633,24.8724965 C38.8122163,22.3008085 39.9290937,19.1884337 40.0542335,15.9590353 C40.1096642,14.4644973 39.901923,12.971852 39.440502,11.5493019 Z M5.01956232,29.4342208 L4.81964979,29.5202156 C2.99649784,30.24534 1.85508545,32.0706689 2.00088309,34.0279431 C1.99079072,34.2320879 2.0220709,34.436166 2.09284286,34.6279069 C2.17769818,34.5000153 2.28465758,34.3882751 2.40870466,34.2979268 C3.71962504,33.6820391 5.08489381,33.1892859 6.4869203,32.8260158 L6.56288706,32.7940177 C8.63845686,31.774723 9.76597305,29.4835152 9.30768612,27.2163549 C8.01974086,28.202048 6.56814236,28.9528311 5.01956232,29.4342208 Z M2.92247986,5.61166079 C4.42182385,6.21162453 6.9687095,6.77759032 7.33255031,7.411552 C7.76708764,5.27599244 6.62333345,3.13284827 4.6077425,2.30586062 L4.40782997,2.21986582 C2.85268539,1.74008838 1.39479082,0.988522387 0.101714043,0 C-0.357566659,2.26781936 0.770104541,4.56016384 2.8465131,5.57966273 L2.92247986,5.61166079 Z M43.1908611,29.5202156 L42.9909486,29.4342208 C41.4397007,28.9543066 39.9853373,28.2041706 38.6948282,27.2183547 C38.2336029,29.4832433 39.3558916,31.7746595 41.4276326,32.7980175 L41.5035993,32.8300155 C42.9056258,33.1932856 44.2708946,33.6860389 45.581815,34.3019266 C45.7121319,34.3925677 45.8246299,34.506464 45.9136698,34.6379063 C45.9844417,34.4461654 46.0157219,34.2420873 46.0056295,34.0379425 C46.1565658,32.078134 45.0161733,30.2477944 43.1908611,29.5202156 Z M47.8968021,0 C46.6035778,0.987814389 45.1456919,1.73869885 43.5906861,2.21786594 L43.3907736,2.30386074 C41.3708198,3.13157773 40.2261321,5.28067168 40.6659658,7.41955151 C41.0298066,6.77559044 43.5766923,6.21962404 45.0760363,5.61966031 L45.152003,5.58766224 C47.2317709,4.56734959 48.3600632,2.27045415 47.8968021,1.97774277e-15 Z"></path>
            </g>
        </g>
    </g>
</svg>