<svg xmlns="http://www.w3.org/2000/svg" width="14" height="14" viewBox="0 0 14 14">
    <path fill="<DYNAMICFILL>" class="svg-content" fill-rule="nonzero" d="M11.982 4.134A5.809 5.809 0 0 0 9.333 3.5c-1.21 0-2.335.369-3.267 1H.5A.5.5 0 0 1 0 4v-.5A.5.5 0 0 1 .5 3h11a.5.5 0 0 1 .5.5V4a.5.5 0 0 1-.018.134zM4.546 6c-.319.457-.574.96-.752 1.5H.5A.5.5 0 0 1 0 7v-.5A.5.5 0 0 1 .5 6h4.046zM3.509 9a5.926 5.926 0 0 0 .108 1.5H.5A.5.5 0 0 1 0 10v-.5A.5.5 0 0 1 .5 9h3.01zM.5 0h13a.5.5 0 0 1 .5.5V1a.5.5 0 0 1-.5.5H.5A.5.5 0 0 1 0 1V.5A.5.5 0 0 1 .5 0zm8.833 14a4.667 4.667 0 1 1 0-9.333 4.667 4.667 0 0 1 0 9.333zm-.379-1.943h-.44c-.192 0-.347.174-.347.388 0 .214.155.388.347.388h2.092a.341.341 0 0 0 .312-.19.427.427 0 0 0 0-.396.341.341 0 0 0-.312-.19h-.44V8.843c0-.374-.271-.676-.606-.676H8.514c-.192 0-.347.173-.347.387 0 .214.155.388.347.388h.44v3.115zm.38-5.64a.583.583 0 1 0 0 1.166.583.583 0 0 0 0-1.166z"/>
</svg>
