<svg xmlns="http://www.w3.org/2000/svg" width="14" height="14" viewBox="0 0 14 14">
    <g fill="#95A5FB" class="svg-content" fill-rule="nonzero">
        <path d="M2.47 4.93c.026.007-.032.726 0 .72 3.562-.624 5.536-.624 9.042 0V3.72H2.47v1.21z"/>
        <path d="M11.512 3.353C11.512 1.78 9.484.5 6.99.5 4.498.5 2.47 1.78 2.47 3.353v.543h9.042v-.543zM13.882 7.876c-.11.373-.408.545-.665.384-3.975-2.493-8.535-2.493-12.51 0a.372.372 0 0 1-.201.06c-.196 0-.382-.166-.465-.444a1.037 1.037 0 0 1-.006-.558.68.68 0 0 1 .27-.404c2.106-1.319 4.346-1.99 6.657-1.99 2.312 0 4.551.671 6.657 1.99a.67.67 0 0 1 .269.404c.05.182.047.38-.006.558z"/>
        <path d="M7.897 8.973A2.122 2.122 0 0 1 9.7 8c.838 0 1.56.467 1.898 1.143h1.152a.25.25 0 0 1 .25.25v.357a.25.25 0 0 1-.25.25h-.95c0 1.105-.94 2-2.1 2-1.16 0-2.1-.895-2.1-2 0-.069.004-.137.01-.204-.427-.237-.816-.23-1.219.019.006.06.009.123.009.185 0 1.105-.94 2-2.1 2-1.16 0-2.1-.895-2.1-2h-.95A.25.25 0 0 1 1 9.75v-.357a.25.25 0 0 1 .25-.25h1.152C2.74 8.467 3.462 8 4.3 8c.77 0 1.442.394 1.808.982.58-.285 1.188-.287 1.79-.009z"/>
    </g>
</svg>
