<svg xmlns="http://www.w3.org/2000/svg" width="45" height="45" viewBox="0 0 45 45">
    <g fill="<DYNAMICFILL>" fill-rule="evenodd">
        <path d="M22.5 0C10.074 0 0 10.074 0 22.5S10.074 45 22.5 45 45 34.926 45 22.5 34.926 0 22.5 0zm0 1.534c11.56 0 20.966 9.405 20.966 20.966 0 11.56-9.405 20.966-20.966 20.966-11.56 0-20.966-9.405-20.966-20.966 0-11.56 9.405-20.966 20.966-20.966z"/>
        <path fill-rule="nonzero" d="M28.274 24.103l-3.013 5.18h-6.025l-3.013-5.18 3.013-5.179h6.025l3.013 5.18zm-8.265 3.851h4.48l2.239-3.85-2.24-3.85h-4.48l-2.24 3.85 2.24 3.85zm-4.654-2.652l2.998 5.155-.808 1.622h.572v1.328h-1.405v-1.024l-.653-.32.777-1.557-2.254-3.875h-4.48l-1.1 1.891.135.315-1.227.53-.556-1.291.477-.198 1.498-2.576h6.026zm12.295-9.081l-.24-1.306 1.352-.228.225 1.31-1.337.224zm-11.074-2.685l-.795 1.142-1.104-.753.8-1.148 1.099.76zm6.65-3.347l-.184 1.316-1.387-.189.18-1.316 1.39.189zm-7.845 5.37l-.329 1.354-1.301-.311.328-1.353 1.302.31zm5.296-4.195l-1.36.314-.31-1.293 1.373-.317.297 1.296zm-2.252.7l-1.156.787-.758-1.095 1.156-.788.758 1.095zm9.444 1.26l-1.033.845-.895-1.057 1.018-.863.91 1.074zm-2.026-1.995l-.658 1.159-1.218-.674.644-1.164 1.232.68zm-12.13 6.937l-.026-.213.016-.002-.001-.015.216-.01 1.098-.13.08.66-.663.078.664-.07.095.717-.759.052-.67.03-.05-1.097zm18.019-3.383l-.205 1.313-1.382-.204.189-1.315 1.398.206zm5.932 8.467l-.222-1.37 1.32-.218.225 1.385-1.323.203zm-.91-3.067l-.318-.585 1.178-.631.355.655.306.591-1.191.607-.33-.637zm-2.297-4.316l-.6 1.189-1.257-.629.605-1.185 1.252.625zm-21.746 3.657l-1.27.58-.567-1.203 1.283-.587.554 1.21zm24-1.778l-.946.94-.994-.97.93-.956 1.01.986zM30.26 31.953l1.387-.229.22 1.31-1.387.23-.22-1.31zm-8.08 1.455v-1.33h1.406v1.33h-1.406zm2.734 0v-1.33h1.405v1.33h-1.405zm8.443-2.369l.588-.316.637 1.17-.66.352-.596.304-.611-1.182.642-.328zm4.319-6.562l1.325.187-.209 1.388-1.322-.204.206-1.371zm-.758 2.87l.22-.433 1.194.6-.63 1.243-.894-.444-.661.374-1.486-2.588h-4.477l-2.26 3.885.844 1.816-.608.279h.893v1.328h-1.406v-1.094l-.095.044-1.134-2.441 2.993-5.145h6.028l1.48 2.577zm-2.054 2.71l.978-.988.962.925-.994 1.001-.946-.939zM8.339 25.12l.024 1.387-1.338.031L7 25.135l1.339-.015zm.46 5.55l.946-.939.994.978-.939.948-1.002-.986zm1.762-9.838l-.96 1.019-.977-.908.96-1.018.977.907zm8.884 12.576v-1.33h1.406v1.33h-1.406zM9.028 22.764l-.5 1.293-1.254-.467.508-1.311 1.246.485zm2.088 9.772l.522-1.224 1.29.534-.508 1.229-1.304-.54zm2.857.862l.015-1.328 1.405.016-.015 1.329-1.405-.017z"/>
    </g>
</svg>
