<svg version="1.1" id="Layer_1" xmlns="http://www.w3.org/2000/svg" xmlns:xlink="http://www.w3.org/1999/xlink" x="0px" y="0px"
	 viewBox="0 0 350 350" style="enable-background:new 0 0 350 350;" xml:space="preserve">
<style type="text/css">
	.st0{fill:#F4F4F4;}
	.st1{fill:#E5E5E5;stroke:#9B9B9B;stroke-width:2.3664;stroke-miterlimit:10;}
	.st2{fill:#E5E5E5;stroke:#9B9B9B;stroke-width:3;stroke-miterlimit:10;}
	.st3{fill:#E5E5E5;stroke:#9B9B9B;stroke-width:2.7161;stroke-miterlimit:10;}
	.st4{fill:#E5E5E5;stroke:#9B9B9B;stroke-width:2.87;stroke-miterlimit:10;}
	.st5{fill:#9B9B9B;}
	.st6{fill:#FFFFFF;}
	.st7{font-family:'TimesNewRomanPS-BoldItalicMT';}
	.st8{font-size:97.6336px;}
	.st9{fill:#979797;}
</style>
<g>
	<circle class="st0" cx="173.9" cy="172.7" r="138.7"/>
	<path class="st1" d="M178.3,209.6c2.3,4.8-7,20-24.5,26.3c-17.6,6.3-36.8,1.2-39.1-3.6c-0.4-0.9,6.5-10.6,12.4-9.9
		c5.9,0.7,10.6-4.1,17.8-5.3S176,204.8,178.3,209.6z"/>
	<ellipse class="st2" cx="93" cy="232.8" rx="32.1" ry="23.7"/>
	<circle class="st2" cx="102.3" cy="156.4" r="65.9"/>
	<ellipse class="st3" cx="68.2" cy="256.4" rx="19" ry="14"/>
	<ellipse class="st4" cx="121.9" cy="256.4" rx="27" ry="11"/>
	<ellipse class="st5" cx="104.7" cy="148.6" rx="10.2" ry="3.6"/>
	<path class="st5" d="M153.4,225.7"/>
	<circle class="st6" cx="142.1" cy="147.5" r="12.1"/>
	<path class="st5" d="M139.9,142.7c2.4-1.3,5.3,0.3,6.3,3.5c1.1,3.3-0.1,7-2.5,8.3c-2.4,1.3-5.3-0.3-6.3-3.5S137.4,144,139.9,142.7z
		"/>
	<path class="st5" d="M155.6,151.3c0.5,0.2,0.9,0.5,1.4,0.6c4.2,1.7,6.1,5.1,5.4,9.5c-1.3,8.8-2.5,17.6-3.7,26.5
		c-0.2,1.5-0.3,3-0.7,4.5c-0.2,0.6-1,1.1-1.6,1.6c-0.3-0.7-1.1-1.3-1-1.9c1.3-10,2.6-20.1,4.1-30.1c0.5-3.6-0.2-6-2.6-7.2
		c-1.4-0.7-2.4-0.9-3.6,0.8c-5.6,8-17.3,8.2-23.2,0.5c-4-5.3-4-12.5,0.2-17.8c4-5.2,11-6.9,17.1-4.3c6,2.6,9.5,8.8,8.6,15.4
		C155.8,150,155.7,150.5,155.6,151.3z M129.9,145.8c-0.8,6.4,3.7,12.3,10.1,13.1c6.5,0.9,12.4-3.7,13.3-10.1
		c0.9-6.3-3.8-12.3-10.1-13.2C136.8,134.7,130.8,139.3,129.9,145.8z"/>
	<g>
		<path class="st5" d="M197.4,160.4c1.8-1.4,2.6-2.3,3.6-2.8c3.4-1.6,6.9-3.3,10.5-4.5c11-3.8,20.4-10,28.7-18.1
			c3.2-3.2,3.6-3,6,0.6c3,4.4,7.3,6.9,12.2,8.3c22.1,6.2,44.2,12.1,66.3,18.3c2.2,0.6,4.2,2.1,6.3,3.1c-1.6,1.5-3.1,3.3-4.9,4.4
			c-10,6-20.1,11.8-30.1,17.8c-2.6,1.6-4.9,1.9-7.9,1c-28.1-8.6-56.3-16.9-84.5-25.4C201.7,162.6,200,161.6,197.4,160.4z
			 M323.1,166.4c-17.2-4.7-33.4-9-49.6-13.7c-10.9-3.2-23-3.9-31-14.2c-9.5,10.5-21.7,15.9-35,21c1.8,0.7,2.7,1.1,3.6,1.4
			c25.1,7.5,50.3,15,75.4,22.6c3.5,1.1,6.1,0.9,9.2-1C304.6,177.1,313.5,172.1,323.1,166.4z"/>
		<path class="st5" d="M200.9,176.1c5.1,1.5,9.8,2.9,14.5,4.3c24.4,7.3,48.8,14.7,73.3,21.9c1.6,0.5,3.9,0.1,5.4-0.7
			c10.6-6,21-12.2,31.5-18.4c0.8-0.5,1.8-1.1,2.7-1.1c0.8,0,2.1,0.5,2.4,1.1c0.3,0.6-0.2,2-0.8,2.4c-1.9,1.4-3.9,2.5-5.9,3.7
			c-9.9,5.8-19.9,11.7-29.9,17.5c-1.1,0.6-2.8,0.9-4,0.5c-29.3-8.7-58.5-17.5-87.8-26.2c-0.7-0.2-1.6-0.3-2-0.7
			c-0.7-0.7-1.6-1.8-1.4-2.5C198.9,177.2,200.2,176.6,200.9,176.1z"/>
		<path class="st5" d="M291.5,198.7c-6.7-2-13.1-3.9-19.4-5.8c-23.2-7-46.5-14-69.7-20.9c-0.5-0.1-1.1-0.1-1.4-0.4
			c-0.9-0.9-1.6-1.8-2.4-2.8c1.2-0.5,2.6-1.6,3.6-1.3c5.3,1.3,10.6,3,15.9,4.6c23.7,7.1,47.4,14.3,71.1,21.3c1.4,0.4,3.4,0,4.7-0.7
			c10.3-5.9,20.6-12,30.8-18c0.4-0.2,0.8-0.7,1.3-0.7c1.5-0.1,3.1-0.1,4.6-0.1c-0.7,1.3-1.1,3.1-2.3,3.8c-9.2,5.6-18.6,11-27.9,16.5
			c-2.3,1.4-4.6,2.8-7,4.1C292.8,198.5,292,198.6,291.5,198.7z"/>
		<path class="st6" d="M323.1,166.4c-9.6,5.6-18.6,10.7-27.3,16.1c-3.1,1.9-5.8,2.1-9.2,1c-25.1-7.7-50.2-15.1-75.4-22.6
			c-0.9-0.3-1.8-0.7-3.6-1.4c13.2-5.1,25.5-10.4,35-21c8,10.3,20.1,11,31,14.2C289.7,157.4,305.9,161.7,323.1,166.4z"/>
	</g>
	<g>
		<path class="st5" d="M219.9,202.9c-18.4,0-33.5-15.1-33.4-33.5c0-18.4,15.1-33.5,33.5-33.4c18.4,0.1,33.5,15.1,33.4,33.5
			C253.4,187.9,238.3,202.9,219.9,202.9z M219.8,194.2c13.6,0.1,24.9-11,25-24.6c0.1-13.5-11-24.9-24.6-25.1
			c-13.6-0.2-25,11-25.1,24.6C195,182.8,206,194.1,219.8,194.2z"/>
		<path class="st5" d="M198.6,200.6c-3,3-10.2,10.7-13.2,13.6c-4.4,4.1-10.9,2.2-12.2-3.6c-0.5-2.2,0-4.4,1.5-5.9
			c4.9-5,9.9-9.8,14.1-13.9C192,194,195.3,197.3,198.6,200.6"/>
		<path class="st6" d="M219.8,194.2c-13.8-0.1-24.8-11.4-24.7-25.1c0.1-13.6,11.5-24.7,25.1-24.6c13.6,0.2,24.8,11.5,24.6,25.1
			C244.7,183.2,233.4,194.4,219.8,194.2z M216.5,187.5c0.1,0.2,0.1,0.4,0.2,0.6c0.8,0.1,1.6,0.3,2.4,0.2c7.2-0.9,12.9-4.2,16.7-10.6
			c1.6-2.7,2.5-5.6,2.1-8.7c-0.1-0.9-0.8-2.2-1.5-2.4c-0.8-0.3-2.2,0.2-2.8,0.8c-1.1,1.1-1.9,2.6-2.6,4c-0.9,1.8-1.4,3.8-2.4,5.6
			c-2.1,3.8-5.6,6.3-9.2,8.5C218.3,186.1,217.4,186.8,216.5,187.5z"/>
		<path class="st5" d="M216.5,187.5c0.9-0.7,1.9-1.4,2.8-2c3.6-2.2,7.1-4.7,9.2-8.5c1-1.8,1.5-3.8,2.4-5.6c0.7-1.4,1.5-2.9,2.6-4
			c0.6-0.6,2-1.1,2.8-0.8c0.7,0.3,1.4,1.5,1.5,2.4c0.4,3.1-0.5,6-2.1,8.7c-3.7,6.4-9.4,9.7-16.7,10.6c-0.8,0.1-1.6-0.1-2.4-0.2
			C216.6,187.9,216.5,187.7,216.5,187.5z"/>
	</g>
	<text transform="matrix(0.996 -8.927000e-02 8.927000e-02 0.996 264.2169 166.3981)" class="st5 st7 st8">?</text>
	<path class="st5" d="M148.7,182.4c1.7-1.8,4-1.6,5.6,0.1c5.8,6.2,0.1,16.1-7.6,16.7c-8,0.6-15.1-1.9-21.6-6.1
		c-2.1-1.3-3.6-3.7-5.4-5.5c-0.3-0.3-1.2-0.6-1.5-0.4c-4.8,3.4-10.3,4-15.9,4c-4.7,0-9.1-0.8-13.4-3c-6-3-7.1-10.5-4.3-15.1
		c2-3.3,5.7-4,8.5-1.4c-3.4-0.5-4.8,0.1-5.3,3c-0.2,1.3,0,3.3,0.7,3.9c1,0.7,3,0.8,4.2,0.3c5.2-1.8,10.2-4.1,15.5-5.7
		c3.9-1.2,7.9-0.6,10.7,2.9c1.1,1.4,2.4,1.5,4,0.7c4.2-2.1,9.8-0.9,13.2,2.4c3.4,3.4,6.8,6.9,10.5,10c1,0.9,3.2,1.1,4.6,0.7
		c1.7-0.4,2.4-2.8,1.9-4.7C152.4,183.3,151.1,182.5,148.7,182.4z"/>
	<g>
		<path class="st9" d="M150.9,117.3c0,0,0.1,0,0.1,0l0,0L150.9,117.3z"/>
		<g>
			<path class="st5" d="M182.9,108c-8.4-4.2-22.9-7.8-31.3-12.1c-3.3-1.7-5.8-3.9-7.3-7c-3.2-6.9-8.2-12.5-15.8-16.3
				c-3-1.5-6-3.1-9-4.8c-1.6-0.9-3.2-1.6-4.9-2.3c-1.5-0.6-1.5-0.6-1.5-0.6c-1.7-0.5-3.2-0.9-3.3-0.9c0,0,0,0-0.1,0
				c-6.7-0.1-13.4,0-20.1,0.4C83.9,64.8,78,65.3,72.4,67c-10.1,2.9-18.9,9.4-27.3,15.7C41.9,85,41.9,85,41.9,85
				c-3.3,2.7-6.4,5.4-6.8,5.9c0,0,0,0-0.4,0.5c-1.5,1.6-2.8,3.3-3.9,5c-4.6,6.8-6.5,14.2-5.2,22.3c1.3,7.9,3.2,15.7,4.9,23.5
				c1.1,4.8-0.1,9.3-2.1,13.8c-1.3,2.9-5.1,8.2-6.4,11.1c-1.1,2.4-2.4,4.8-3.6,7.2c-0.4,0.7-1,1.3-1.2,2c-0.2,0.8-0.5,2.3-0.1,2.5
				c0.9,0.4,2.2,0.3,3.3,0.2c0.5,0,1.1-0.4,1.5-0.6c3-1.8,8.7-5.9,11.7-7.6c2.7-1.6,2.7-1.6,2.7-1.6c4.2-2.6,31.5-15.3,60.6-28.1
				s53.1-23.4,53.3-23.5s0.6-0.2,0.6-0.3s0.1,0,0.1,0c0,0,0.6-0.2,1.3-0.4c0,0,0,0,0.8-0.1c7.5-1,21-2.6,28.5-3.6
				c1.7-0.2,3.3-0.7,3.7-2.4C185.8,109,184.1,108.6,182.9,108z"/>
		</g>
	</g>
	<g>
		<g>
			<path class="st5" d="M69.4,67.1c-0.6-1.3-1.2-3-0.7-4.5c0.2-0.5,1.7-2.2,2.3-1.3c0.2,0.2-1.7,2.4-1.9,2.7c-0.6,1-1,2-1,3.1
				c0,1.9,3,1.9,3,0c0-2.3,3-3.6,2.9-6c-0.1-2-2.3-3.1-4.1-2.8c-1.8,0.3-3.4,1.6-4,3.2c-0.9,2.4-0.1,4.9,0.8,7.1
				C67.6,70.4,70.2,68.9,69.4,67.1L69.4,67.1z"/>
		</g>
	</g>
	<g>
		<g>
			<path class="st5" d="M67.7,66.9c-3.9-1-7.3-3.4-11.3-3.8c-2.5-0.2-6.3,0.3-7.5,2.9c-3,6.4,13.9,5,16.4,5.1c1.9,0.1,1.9-2.9,0-3
				c-2.4-0.1-4.8-0.1-7.3-0.2c-1,0-2,0-3-0.1c-1.5-0.1-3.6-0.1-1.8-1.4c1.8-1.4,5.8,0.4,7.5,1.1c2,0.8,4,1.7,6.1,2.3
				C68.8,70.3,69.6,67.4,67.7,66.9L67.7,66.9z"/>
		</g>
	</g>
</g>
</svg>
