<svg xmlns="http://www.w3.org/2000/svg" width="24" height="24" viewBox="0 0 24 24">
  <path class="svg-content" fill="#727272" d="M20.063 19.5H19c-.815 0-1.5-.6-1.5-1.375V12.5h-2.566A7.501 7.501 0 0 1 0 11.5a7.5 7.5 0 0 1 15 0h2.5V5.875c0-.775.685-1.375 1.5-1.375h1.063a2 2 0 1 1 0 1H19c-.29 0-.5.184-.5.375V11.5h1.563a2 2 0 1 1 0 1H18.5v5.625c0 .191.21.375.5.375h1.063a2 2 0 1 1 0 1zm-8.67-10.717L9.5 10.685 7.65 10.35 7.319 8.5 9.214 6.6c-.426-.426-1.033-.62-1.483-.597-.452.023-1.418.278-2.166 1.073-.725.765-1.486 2.191-.812 3.775.08.19.171.442-.097.71-.133.132-.256.385-1.993 2.022-1.737 1.638.31 3.417 1.88 1.749 1.569-1.669 1.746-1.845 1.897-1.992.285-.279.54-.185.711-.098 1.194.618 2.894.081 3.776-.801.882-.883 1.043-1.735 1.07-2.17.027-.434-.124-1.007-.604-1.487z"/>
</svg>
