<svg xmlns="http://www.w3.org/2000/svg" width="24" height="24" viewBox="0 0 24 24">
  <path class="svg-content" fill="#727272" d="M17.313 17.6a.932.932 0 0 1-.938-.927c0-.512.42-.927.938-.927 1.553 0 2.813-1.246 2.813-2.783a2.758 2.758 0 0 0-1.15-2.238 2.687 2.687 0 0 0-.453-.27 2.728 2.728 0 0 0-.175-.076l-.079-.029a2.834 2.834 0 0 0-.162-.054l-.11-.028c-.048-.012-.095-.024-.144-.034-.05-.009-.102-.016-.153-.023-.037-.005-.074-.012-.112-.015a2.937 2.937 0 0 0-.275-.014c-.03 0-.058.004-.087.005a5.234 5.234 0 0 0-.107-.468c-.01-.038-.025-.073-.036-.11a5.286 5.286 0 0 0-.113-.344c-.013-.034-.029-.066-.043-.1a4.76 4.76 0 0 0-.148-.337c-.012-.027-.028-.053-.04-.079A5.312 5.312 0 0 0 12 5.854 5.312 5.312 0 0 0 7.26 8.75c-.012.026-.027.052-.04.079-.054.11-.102.222-.148.337-.014.034-.03.066-.043.1a5.282 5.282 0 0 0-.113.344c-.011.037-.025.072-.036.11a5.404 5.404 0 0 0-.107.468c-.029-.001-.057-.005-.086-.005-.094 0-.185.005-.276.014-.038.003-.074.01-.111.015a3.802 3.802 0 0 0-.154.023c-.048.01-.096.022-.143.034-.037.01-.075.018-.11.028a2.947 2.947 0 0 0-.163.054l-.08.03a2.728 2.728 0 0 0-.44.22c-.065.04-.127.08-.188.125-.004.003-.009.006-.012.01a2.757 2.757 0 0 0-1.136 2.229c0 1.536 1.259 2.782 2.813 2.782.518 0 .937.415.937.927s-.42.927-.937.927C4.098 17.6 2 15.525 2 12.963 2 10.876 3.397 9.11 5.316 8.53A7.172 7.172 0 0 1 12 4a7.17 7.17 0 0 1 6.684 4.53c1.92.58 3.316 2.346 3.316 4.433 0 2.562-2.098 4.637-4.687 4.637m-8.822-2.166l2.812-3.09.003.002a.934.934 0 0 1 1.389 0l.002-.003 2.813 3.091-.003.003a.91.91 0 0 1 .243.617.936.936 0 1 1-1.632.618l-.002.003-1.178-1.294v4.692c0 .512-.42.927-.938.927a.933.933 0 0 1-.938-.927V15.38l-1.178 1.294-.002-.002a.937.937 0 0 1-1.632-.619c0-.238.094-.453.243-.617l-.002-.003"/>
</svg>
