<svg xmlns="http://www.w3.org/2000/svg" width="24" height="24" viewBox="0 0 24 24">
    <path class="svg-content" fill="#B6B6B6" fill-rule="evenodd" d="M15 0H3C1.343 0 0 1.264 0 2.824v18.352C0 22.736 1.343 24 3 24h18c1.657 0 3-1.264 3-2.824V8.471L15 0zM3.6 9.882h6.212c.429 0 .776.316.776.706 0 .39-.347.706-.776.706H3.6c-.429 0-.776-.316-.776-.706 0-.39.347-.706.776-.706zm13.306 9.883H3.565c-.41 0-.741-.316-.741-.706 0-.39.331-.706.74-.706h13.342c.41 0 .741.316.741.706 0 .39-.332.706-.741.706zm0-4.236H3.565c-.41 0-.741-.316-.741-.705 0-.39.331-.706.74-.706h13.342c.41 0 .741.316.741.706 0 .39-.332.705-.741.705zm-2.082-7.058V1.41l7.764 7.06h-7.764z"/>
</svg>
