<?xml version="1.0" encoding="UTF-8"?>
<svg width="48px" height="48px" viewBox="0 0 48 48" version="1.1" xmlns="http://www.w3.org/2000/svg" xmlns:xlink="http://www.w3.org/1999/xlink">
    <!-- Generator: sketchtool 51.1 (57501) - http://www.bohemiancoding.com/sketch -->
    <title>327208F2-CA57-4974-A537-97E9D3200E7B</title>
    <desc>Created with sketchtool.</desc>
    <defs></defs>
    <g id="Symbols" stroke="none" stroke-width="1" fill="none" fill-rule="evenodd">
        <g id="ic-integration-md" fill="#062E79">
            <path d="M48.0993789,27.3367089 C48.0993789,24.9822785 47.4355072,22.7979747 46.1253002,20.8450633 C45.0896605,19.3012658 43.7769482,18.0582278 42.2107122,17.1362025 C42.1520911,13.5448101 40.7872712,10.4344304 38.1523271,7.88708861 C35.4833126,5.3078481 32.2240787,4 28.4648116,4 C25.6635238,4 23.0831925,4.76759494 20.7964679,6.28202532 C19.1580828,7.36556962 17.8238261,8.70582278 16.8097308,10.2810127 C15.8687867,9.88810127 14.8451718,9.68962025 13.7484058,9.68962025 C11.6059793,9.68962025 9.74663768,10.436962 8.22248861,11.9098734 C6.67278675,13.4081013 5.88666253,15.2481013 5.88666253,17.3792405 C5.88666253,18.0248101 5.96532505,18.6516456 6.121147,19.2562025 C4.69169358,19.92 3.44411594,20.8870886 2.39595031,22.1473418 C0.806165631,24.0592405 0,26.2835443 0,28.7589873 C0,31.6724051 1.0762236,34.1893671 3.19810766,36.24 C5.04141615,38.0217722 7.2429648,39.0298734 9.75315114,39.2475949 C10.1018716,41.9286076 12.3660497,44 15.1137267,44 L18.5307867,44 L18.5307867,30.5878481 L15.1137267,30.5878481 C12.4071346,30.5878481 10.1710145,32.598481 9.77118841,35.2207595 C8.29814493,35.0273418 7.03052588,34.4146835 5.92574327,33.3468354 C4.59649689,32.0622785 3.95016149,30.561519 3.95016149,28.7589873 C3.95016149,27.2313924 4.43015321,25.9113924 5.41719255,24.7240506 C6.4272795,23.5098734 7.67535818,22.7493671 9.23257557,22.3994937 C9.87189648,22.2551899 10.3994865,21.8 10.6404845,21.1827848 C10.8819834,20.5660759 10.8053251,19.8683544 10.4365631,19.32 C10.0327288,18.7210127 9.83682402,18.0860759 9.83682402,17.3792405 C9.83682402,16.3559494 10.1905549,15.5372152 10.9501242,14.8035443 C11.7362484,14.0435443 12.6250849,13.6896203 13.7484058,13.6896203 C14.7469689,13.6896203 15.5786874,13.9858228 16.2901573,14.5949367 C16.7671429,15.003038 17.4069648,15.1579747 18.0142195,15.0156962 C18.6219752,14.8718987 19.1275197,14.4455696 19.3765342,13.8663291 C20.1305921,12.1108861 21.3020124,10.7255696 22.9574327,9.62987342 C24.6143561,8.53316456 26.4155776,8 28.4648116,8 C31.2124886,8 33.4891925,8.90936709 35.4246915,10.7802532 C37.3341366,12.6263291 38.2625549,14.7848101 38.2625549,17.3792405 C38.2625549,17.4987342 38.2555404,17.7351899 38.221971,18.1848101 C38.1593416,19.0278481 38.6268075,19.8197468 39.3898841,20.163038 C40.8373747,20.8146835 41.9722195,21.7726582 42.8575487,23.0926582 C43.7268447,24.3883544 44.1492174,25.7762025 44.1492174,27.3367089 C44.1492174,29.5275949 43.360087,31.355443 41.7367329,32.924557 C40.7076066,33.9194937 39.5672505,34.5949367 38.2891097,34.9625316 C37.7870725,32.4663291 35.6035611,30.5878481 32.9856522,30.5878481 L29.5685921,30.5878481 L29.5685921,33.2202532 L25.153971,33.2202532 C24.5442112,33.2202532 24.0496894,33.7194937 24.0496894,34.3356962 L24.0496894,34.3397468 C24.0496894,34.955443 24.5442112,35.4551899 25.153971,35.4551899 L29.5685921,35.4551899 L29.5685921,38.8167089 L25.153971,38.8167089 C24.5442112,38.8167089 24.0496894,39.3164557 24.0496894,39.9321519 L24.0496894,39.9362025 C24.0496894,40.5524051 24.5442112,41.0516456 25.153971,41.0516456 L29.5685921,41.0516456 L29.5685921,44 L32.9856522,44 C35.802472,44 38.1147495,41.8248101 38.3722816,39.0460759 C40.6635155,38.5939241 42.706236,37.516962 44.4643685,35.8177215 C46.876352,33.4865823 48.0993789,30.6329114 48.0993789,27.3367089" id="ic-integration-large"></path>
        </g>
    </g>
</svg>