<?xml version="1.0" standalone="no"?>
<!DOCTYPE svg PUBLIC "-//W3C//DTD SVG 20010904//EN"
 "http://www.w3.org/TR/2001/REC-SVG-20010904/DTD/svg10.dtd">
<svg version="1.0" xmlns="http://www.w3.org/2000/svg"
 width="177.000000pt" height="177.000000pt" viewBox="0 0 177.000000 177.000000"
 preserveAspectRatio="xMidYMid meet">

<g transform="translate(0.000000,177.000000) scale(0.100000,-0.100000)"
fill="#000000" stroke="none">
<path d="M0 885 l0 -885 80 0 c77 0 80 1 70 20 -7 13 -10 248 -8 736 l3 716
24 19 c22 18 49 19 731 19 682 0 709 -1 731 -19 l24 -19 3 -716 c2 -488 -1
-723 -8 -736 -10 -19 -7 -20 55 -20 l65 0 0 885 0 885 -885 0 -885 0 0 -885z"/>
<path d="M218 1355 l4 -75 678 0 678 0 4 75 3 75 -685 0 -685 0 3 -75z m147 0
c0 -29 -1 -30 -50 -30 -40 0 -50 4 -53 18 -7 38 5 48 55 45 46 -3 48 -4 48
-33z m140 0 c0 -29 -1 -30 -50 -30 -40 0 -50 4 -53 18 -7 38 5 48 55 45 46 -3
48 -4 48 -33z m140 0 c0 -29 -1 -30 -50 -30 -40 0 -50 4 -53 18 -7 38 5 48 55
45 46 -3 48 -4 48 -33z"/>
<path d="M218 635 l2 -565 680 0 680 0 0 565 0 565 -682 0 -683 0 3 -565z
m1242 510 c37 -19 60 -62 60 -110 0 -77 -63 -133 -137 -123 l-40 6 -74 -91
c-41 -49 -72 -97 -70 -106 2 -9 5 -37 8 -64 5 -43 2 -50 -29 -81 -56 -56 -109
-59 -167 -10 -19 15 -33 39 -37 61 -6 30 -17 42 -76 80 -67 43 -72 45 -108 34
-38 -11 -96 -6 -106 10 -3 5 -42 -22 -88 -60 -78 -67 -82 -71 -78 -106 9 -79
-40 -135 -120 -135 -43 0 -54 4 -84 34 -30 30 -34 40 -34 84 0 39 6 57 25 81
33 39 85 56 126 42 35 -12 33 -13 132 69 64 54 66 56 66 104 1 41 6 53 35 82
28 28 42 34 75 34 23 0 55 -7 70 -15 33 -17 61 -70 61 -117 0 -30 6 -37 60
-71 l61 -38 29 21 c17 12 44 20 69 20 39 0 44 4 118 92 l78 91 -3 52 c-4 62
15 107 56 129 35 20 86 20 122 1z m43 -414 c4 -4 6 -147 5 -317 l-3 -309 -105
0 -105 0 -3 310 c-3 367 -12 340 118 330 47 -4 88 -10 93 -14z m-655 -183 c17
-17 17 -419 0 -436 -18 -18 -192 -16 -207 2 -9 10 -11 73 -9 221 2 170 6 207
18 215 22 14 184 12 198 -2z m340 -96 c9 -7 12 -49 10 -178 l-3 -169 -85 -3
c-141 -5 -130 -19 -130 171 0 113 4 167 12 175 14 14 175 17 196 4z m-680
-211 c2 -93 -1 -126 -10 -133 -15 -9 -169 -11 -192 -2 -13 5 -16 26 -16 128 0
68 3 126 7 130 4 4 52 5 107 4 l101 -3 3 -124z"/>
<path d="M1365 1071 c-4 -7 4 -9 23 -5 34 7 57 -15 49 -47 -4 -16 -3 -19 6
-10 7 7 8 19 1 38 -7 21 -17 29 -41 31 -17 2 -34 -2 -38 -7z"/>
<path d="M1351 1034 c0 -12 7 -28 17 -35 15 -12 16 -12 6 1 -7 8 -14 24 -17
35 -4 19 -5 19 -6 -1z"/>
<path d="M712 888 c-13 -13 -16 -54 -4 -61 4 -3 7 9 7 26 0 26 5 33 23 35 30
4 55 -16 49 -40 -3 -10 -1 -16 4 -12 14 8 11 31 -7 48 -18 19 -55 21 -72 4z"/>
<path d="M1052 688 c-7 -7 -12 -21 -11 -32 1 -18 2 -17 8 4 6 21 13 25 43 25
20 0 34 3 31 8 -7 11 -58 8 -71 -5z"/>
<path d="M1131 653 c-1 -16 -10 -25 -33 -32 -22 -6 -26 -9 -12 -10 30 -1 57
22 51 45 -4 17 -5 16 -6 -3z"/>
<path d="M372 604 c-23 -16 -28 -40 -12 -64 7 -11 8 -6 4 17 -5 25 -2 33 15
42 42 23 80 -23 49 -59 -11 -12 -10 -12 5 -1 24 18 21 47 -5 65 -12 9 -25 16
-28 16 -3 0 -16 -7 -28 -16z"/>
<path d="M1360 420 l0 -240 40 0 40 0 0 240 0 240 -40 0 -40 0 0 -240z"/>
<path d="M710 437 c0 -24 -3 -92 -7 -150 l-6 -107 46 0 47 0 0 150 0 150 -40
0 -40 0 0 -43z"/>
<path d="M1050 280 l0 -100 40 0 40 0 0 100 0 100 -40 0 -40 0 0 -100z"/>
<path d="M360 235 l0 -55 40 0 40 0 0 55 0 55 -40 0 -40 0 0 -55z"/>
</g>
</svg>
