<?xml version="1.0" standalone="no"?>
<!DOCTYPE svg PUBLIC "-//W3C//DTD SVG 20010904//EN"
 "http://www.w3.org/TR/2001/REC-SVG-20010904/DTD/svg10.dtd">
<svg version="1.0" xmlns="http://www.w3.org/2000/svg"
 width="177.000000pt" height="177.000000pt" viewBox="0 0 177.000000 177.000000"
 preserveAspectRatio="xMidYMid meet">

<g transform="translate(0.000000,177.000000) scale(0.100000,-0.100000)"
fill="#000000" stroke="none">
<path d="M0 885 l0 -885 82 0 c64 0 79 3 70 12 -9 9 -12 186 -12 734 l0 723
26 20 c26 21 34 21 729 21 695 0 703 0 729 -21 l26 -20 0 -723 c0 -548 -3
-725 -12 -734 -9 -9 4 -12 60 -12 l72 0 0 885 0 885 -885 0 -885 0 0 -885z"/>
<path d="M210 1355 l0 -75 685 0 685 0 0 75 0 75 -685 0 -685 0 0 -75z m144
29 c35 -34 8 -67 -51 -62 -34 3 -38 6 -41 32 -2 16 2 32 10 37 21 14 65 10 82
-7z m141 3 c13 -10 16 -21 11 -40 -6 -24 -11 -27 -50 -27 -25 0 -48 6 -55 14
-12 14 -5 46 13 58 18 12 61 9 81 -5z m139 0 c11 -8 17 -23 14 -38 -3 -22 -8
-24 -53 -24 -45 0 -50 2 -53 23 -2 13 2 30 8 38 15 18 60 18 84 1z"/>
<path d="M210 640 l0 -570 140 0 140 0 0 570 0 570 -140 0 -140 0 0 -570z
m248 448 c18 -18 14 -46 -7 -58 -11 -5 -59 -10 -106 -10 -47 0 -95 5 -106 10
-21 12 -25 40 -7 58 16 16 210 16 226 0z m6 -120 c8 -13 8 -23 0 -35 -16 -25
-214 -32 -234 -8 -10 12 -10 21 -2 41 12 24 13 25 118 22 89 -3 109 -6 118
-20z m-13 -98 c21 -12 25 -40 7 -58 -16 -16 -210 -16 -226 0 -16 16 -15 33 4
52 12 12 37 16 105 16 50 0 99 -5 110 -10z m15 -134 c3 -14 3 -30 -1 -35 -4
-7 -51 -11 -120 -11 -120 0 -134 6 -120 51 6 17 18 19 120 19 113 0 115 0 121
-24z m0 -113 c11 -41 -15 -53 -119 -53 -94 0 -127 10 -127 38 0 35 21 42 132
42 l108 0 6 -27z"/>
<path d="M560 640 l0 -570 510 0 510 0 0 570 0 570 -510 0 -510 0 0 -570z
m940 451 c5 -11 10 -74 10 -140 0 -95 -3 -123 -16 -135 -13 -14 -66 -16 -425
-16 -264 0 -417 4 -430 10 -17 10 -19 22 -19 136 0 69 5 134 10 145 10 18 26
19 435 19 409 0 425 -1 435 -19z m-621 -365 c8 -9 11 -54 9 -132 l-3 -119
-125 0 -125 0 -3 119 c-2 78 1 123 9 132 8 10 39 14 119 14 80 0 111 -4 119
-14z m306 -2 c13 -13 15 -36 13 -133 l-3 -116 -124 -3 c-93 -2 -126 1 -133 10
-4 7 -8 58 -8 113 0 143 2 145 135 145 82 0 107 -3 120 -16z m299 10 c13 -5
16 -27 16 -135 l0 -130 -127 3 -128 3 -3 120 c-2 104 0 121 15 132 17 13 197
19 227 7z m-599 -449 l0 -130 -105 -3 c-161 -4 -150 -14 -150 132 0 90 3 126
13 130 6 2 64 4 127 3 l115 -2 0 -130z m303 123 c17 -17 17 -229 0 -246 -17
-17 -229 -17 -246 0 -15 15 -16 211 -2 239 10 17 22 19 123 19 75 0 117 -4
125 -12z m307 -123 l0 -130 -105 -3 c-160 -4 -150 -13 -150 126 0 80 4 122 12
130 9 9 47 12 128 10 l115 -3 0 -130z"/>
<path d="M698 960 l4 -70 369 0 369 0 0 70 0 70 -372 0 -373 0 3 -70z"/>
</g>
</svg>
