<?xml version="1.0" standalone="no"?>
<!DOCTYPE svg PUBLIC "-//W3C//DTD SVG 20010904//EN"
 "http://www.w3.org/TR/2001/REC-SVG-20010904/DTD/svg10.dtd">
<svg version="1.0" xmlns="http://www.w3.org/2000/svg"
 width="175.000000pt" height="175.000000pt" viewBox="0 0 175.000000 175.000000"
 preserveAspectRatio="xMidYMid meet">

<g transform="translate(0.000000,175.000000) scale(0.100000,-0.100000)"
fill="#000000" stroke="none">
<path d="M0 875 l0 -875 58 0 57 0 -3 317 c-1 175 0 328 3 341 l5 22 208 -2
207 -3 3 -167 2 -167 95 -3 95 -3 11 28 c12 27 66 77 85 77 5 0 9 41 9 90 l0
90 -37 0 c-43 0 -53 13 -60 82 -4 37 -2 51 13 64 16 14 16 18 4 31 -8 8 -15
29 -15 46 0 40 -6 47 -53 72 -22 10 -55 35 -75 55 l-37 35 -39 -43 c-30 -33
-46 -42 -65 -40 -19 2 -27 10 -29 27 -5 30 52 91 85 91 20 0 22 3 13 19 -5 11
-16 44 -24 73 l-13 53 -64 5 c-61 5 -64 6 -67 32 -3 24 1 28 32 34 20 3 50 4
66 2 32 -5 32 -4 45 62 4 19 14 47 21 63 13 25 13 27 -4 27 -10 0 -35 16 -56
35 -45 41 -47 78 -5 83 19 2 35 -7 65 -40 l40 -44 18 24 c27 36 115 90 176
108 76 22 179 15 251 -18 109 -50 179 -135 208 -250 10 -42 20 -67 25 -60 10
17 98 15 122 -2 15 -12 17 -18 8 -33 -9 -14 -24 -18 -77 -18 l-66 0 -11 -49
c-21 -100 -80 -178 -175 -233 -45 -26 -50 -33 -53 -69 -2 -21 -8 -44 -14 -51
-7 -9 -5 -17 6 -29 13 -12 15 -27 10 -67 -8 -65 -18 -77 -60 -77 l-34 0 0 -88
0 -88 35 -17 c20 -9 45 -33 56 -52 l21 -35 99 0 99 0 2 168 3 167 199 3 c141
2 203 -1 213 -9 11 -10 13 -67 11 -341 l-3 -328 53 0 52 0 0 875 0 875 -875 0
-875 0 0 -875z m1318 630 c4 -29 -69 -98 -99 -93 -64 9 1 122 66 116 21 -2 31
-9 33 -23z m-33 -505 c32 -33 38 -44 29 -58 -19 -30 -45 -26 -85 14 -51 50
-53 84 -4 84 11 0 39 -18 60 -40z"/>
<path d="M783 1501 c-145 -50 -226 -196 -189 -341 25 -98 68 -150 162 -198 40
-20 64 -55 64 -92 0 -17 7 -20 49 -20 47 0 49 1 55 33 7 38 30 62 99 101 203
116 168 431 -57 515 -69 25 -114 26 -183 2z"/>
<path d="M828 773 c23 -2 61 -2 85 0 23 2 4 4 -43 4 -47 0 -66 -2 -42 -4z"/>
<path d="M190 335 l0 -275 135 0 135 0 0 275 0 275 -135 0 -135 0 0 -275z
m228 178 l3 -33 -90 0 -91 0 0 35 0 36 88 -3 87 -3 3 -32z m2 -108 l0 -35 -90
0 -90 0 0 35 0 35 90 0 90 0 0 -35z m-62 -224 c8 -5 12 -21 10 -37 -2 -23 -8
-30 -31 -32 -32 -4 -57 13 -57 37 0 35 45 53 78 32z"/>
<path d="M1300 335 l0 -275 133 0 132 0 -3 275 -3 275 -129 0 -130 0 0 -275z
m220 180 l0 -35 -90 0 -90 0 0 35 0 35 90 0 90 0 0 -35z m0 -110 l0 -35 -90 0
-90 0 0 35 0 35 90 0 90 0 0 -35z m-46 -237 c16 -26 -4 -52 -42 -56 -38 -4
-59 26 -42 59 14 25 67 23 84 -3z"/>
<path d="M850 369 c-12 -8 -11 -9 5 -5 11 3 34 -1 50 -10 24 -12 27 -12 15 -1
-22 21 -53 28 -70 16z"/>
<path d="M931 303 c-2 -46 -41 -71 -85 -55 -28 10 -29 10 -12 -3 28 -21 51
-19 81 8 21 17 26 29 22 52 l-4 30 -2 -32z"/>
<path d="M538 135 l-3 -135 343 0 342 0 0 135 0 135 -102 0 -103 0 -15 -32
c-24 -50 -63 -73 -125 -73 -60 0 -96 20 -130 73 -20 31 -20 31 -112 32 l-92 0
-3 -135z"/>
</g>
</svg>
