<?xml version="1.0" encoding="UTF-8" standalone="no"?>
<svg width="14px" height="12px" viewBox="0 0 14 12" version="1.1" xmlns="http://www.w3.org/2000/svg" xmlns:xlink="http://www.w3.org/1999/xlink">
    <!-- Generator: sketchtool 39 (31667) - http://www.bohemiancoding.com/sketch -->
    <title>2E4A2B33-18E9-42A0-857D-D8F21B671B64</title>
    <desc>Created with sketchtool.</desc>
    <defs></defs>
    <g id="Case-Management-" stroke="none" stroke-width="1" fill="none" fill-rule="evenodd">
        <g id="8.-Tibco-Case-Management---Detail-Page--collapsed" transform="translate(-75.000000, -643.000000)" fill="#0081CB">
            <g id="change" transform="translate(69.000000, 636.000000)">
                <g id="task-complete" transform="translate(6.000000, 7.000000)">
                    <g id="Capa_1">
                        <g id="change-icon">
                            <path d="M6.0006733,6.2048608 C6.22449716,5.67444886 6.41423864,5.25835227 6.56997443,4.95662216 C6.68676989,4.7327983 6.79635511,4.54420739 6.89855114,4.39090057 C7.00064489,4.23759375 7.12482955,4.08794318 7.27077273,3.94197443 C7.41689489,3.79595455 7.58469886,3.68634375 7.77459375,3.6134233 C7.96428409,3.54042614 8.1759375,3.50391477 8.40965625,3.50391477 L10.2782812,3.50391477 L10.2782812,4.90551136 C10.2782812,4.96876705 10.3013693,5.02355966 10.347571,5.0697358 C10.3937727,5.11598864 10.4485398,5.1390767 10.5117187,5.1390767 C10.5799602,5.1390767 10.6359545,5.11724148 10.6795227,5.07341761 L13.0155597,2.73753409 C13.0594858,2.69368466 13.0813466,2.63779261 13.0813466,2.56962784 C13.0813466,2.50146307 13.0594858,2.44554545 13.0155597,2.40154261 L10.6868864,0.07284375 C10.6286165,0.0242130682 10.5699886,0 10.5116932,0 C10.4434517,0 10.3876108,0.0218607955 10.3437102,0.0657102273 C10.300142,0.109508523 10.2782557,0.165426136 10.2782557,0.233565341 L10.2782557,1.63505966 L8.40963068,1.63505966 C8.078625,1.63505966 7.76720455,1.67530398 7.4751392,1.75558807 C7.18307386,1.83587216 6.9238892,1.93801705 6.69763636,2.06217614 C6.47130682,2.18628409 6.25234091,2.3529375 6.0406108,2.56223864 C5.82890625,2.7714375 5.64880398,2.97347727 5.50045739,3.16812784 C5.35205966,3.36272727 5.19627273,3.60603409 5.03327557,3.89807386 C4.87030398,4.1900625 4.73888352,4.44559091 4.63911648,4.66455682 C4.53932386,4.88357386 4.41889773,5.15367614 4.27778693,5.4748892 C4.05388636,6.0053267 3.86409375,6.42147443 3.70838352,6.72317898 C3.59161364,6.94700284 3.48202841,7.13564489 3.37990909,7.28892614 C3.27773864,7.44223295 3.15355398,7.59185795 3.00758523,7.7378267 C2.86156534,7.88394886 2.69365909,7.99348295 2.50386648,8.06648011 C2.314125,8.1394517 2.10236932,8.1760142 1.86880398,8.1760142 L0.233667614,8.1760142 C0.165502841,8.1760142 0.109508523,8.19772159 0.0657613636,8.24162216 C0.0220653409,8.28536932 0.000102272727,8.34121023 0.000102272727,8.40942614 L0.000102272727,9.81115057 C0.000102272727,9.87923864 0.0221420455,9.93523295 0.0659403409,9.97913352 C0.109764205,10.0229063 0.165784091,10.044767 0.233846591,10.044767 L1.86903409,10.044767 C2.20003977,10.044767 2.51143466,10.0045227 2.80347443,9.9241875 C3.09546307,9.84385227 3.3546733,9.74165625 3.58090057,9.61759943 C3.80725568,9.49344034 4.02622159,9.3267358 4.23792614,9.11743466 C4.44957955,8.9083125 4.62973295,8.70619602 4.77813068,8.51162216 C4.92647727,8.31692045 5.08223864,8.07366477 5.24528693,7.7817017 C5.40825852,7.4896108 5.53973011,7.23413352 5.63944602,7.01519318 C5.73913636,6.79617614 5.85953693,6.52615057 6.0006733,6.2048608" id="Fill-1"></path>
                            <path d="M0.233565341,3.50383807 L1.86875284,3.50383807 C2.08288636,3.50383807 2.28116761,3.53914773 2.46369886,3.60976705 C2.64623011,3.68038636 2.79951136,3.76550284 2.92359375,3.86532102 C3.0477017,3.9651392 3.17178409,4.10256818 3.29589205,4.2777358 C3.41997443,4.45300568 3.51853977,4.60756534 3.59153693,4.7413125 C3.66448295,4.8751875 3.75450852,5.05163352 3.86158807,5.27059943 C4.23639205,4.38975 4.5696733,3.72546307 4.8616875,3.27773864 C4.08303409,2.18278125 3.0853892,1.63521307 1.86872727,1.63521307 L0.233565341,1.63521307 C0.165400568,1.63521307 0.10940625,1.65707386 0.0656590909,1.7009233 C0.0219630682,1.74467045 0,1.80058807 0,1.86875284 L0,3.27034943 C0,3.33853977 0.0218607955,3.39438068 0.0656590909,3.43815341 C0.109508523,3.48200284 0.165502841,3.50383807 0.233565341,3.50383807" id="Fill-3"></path>
                            <path d="M10.6870653,6.61382386 C10.6286165,6.56519318 10.5701676,6.54103125 10.5117188,6.54103125 C10.4436563,6.54103125 10.3876364,6.56281534 10.3439148,6.6066392 C10.3001676,6.65038636 10.2783068,6.70638068 10.2783068,6.77444318 L10.2783068,8.17616761 L8.40950284,8.17616761 C8.19529261,8.17616761 7.99703693,8.14080682 7.81450568,8.07013636 C7.63197443,7.99959375 7.47866761,7.91447727 7.3546108,7.81463352 C7.23063068,7.71489205 7.10647159,7.5773608 6.9823892,7.40209091 C6.85823011,7.22689773 6.75961364,7.0723125 6.68664205,6.93841193 C6.61372159,6.80479261 6.52369602,6.62814205 6.41661648,6.40932955 C6.04191477,7.28526989 5.71103693,7.94955682 5.42385511,8.40219034 C5.55519886,8.59195739 5.69147727,8.76109091 5.83261364,8.90941193 C5.97369886,9.05780966 6.10757386,9.18800284 6.23408523,9.29999148 C6.36062216,9.4118267 6.5041875,9.50929261 6.66475568,9.59187784 C6.82540057,9.67464205 6.96646023,9.74395739 7.08824148,9.79997727 C7.21022727,9.85594602 7.36335511,9.90094602 7.54821307,9.93505398 C7.73309659,9.96900852 7.88883239,9.99473011 8.01536932,10.0115284 C8.14188068,10.0285057 8.31469602,10.0407528 8.5336875,10.0481165 C8.75260227,10.0554545 8.93025,10.0577301 9.066375,10.0554545 C9.20278125,10.053 9.39991193,10.050392 9.65786932,10.0481165 C9.9158267,10.0457386 10.1226733,10.0444347 10.2784347,10.0444347 L10.2784347,11.4460568 C10.2784347,11.5093125 10.3015227,11.5640795 10.3477244,11.6102812 C10.3939261,11.6565085 10.4486932,11.6795966 10.5118722,11.6795966 C10.5801136,11.6795966 10.636108,11.6577358 10.6796761,11.6139886 L13.0157131,9.27813068 C13.0594602,9.23420455 13.081321,9.1783892 13.081321,9.11014773 C13.081321,9.04198295 13.0594602,8.98606534 13.0155341,8.94234375 L10.6870653,6.61382386 Z" id="Fill-5"></path>
                        </g>
                    </g>
                </g>
            </g>
        </g>
    </g>
</svg>