<?xml version="1.0" encoding="UTF-8" standalone="no"?>
<svg width="24px" height="24px" viewBox="0 0 24 24" version="1.1" xmlns="http://www.w3.org/2000/svg" xmlns:xlink="http://www.w3.org/1999/xlink">
    <!-- Generator: sketchtool 39 (31667) - http://www.bohemiancoding.com/sketch -->
    <title>icon-ic_tci_service_task</title>
    <desc>icon-ic_tci_service_task</desc>
    <defs></defs>

	<g id="icon-ic_tci_service_task" fill="#0081CB">
		<title>icon-ic_tci_service_task</title>
		<path class="path1"
			  d="M19.6,2.4H2.4c-1,0-1.9,0.9-1.9,1.9v13.4c0,1,0.9,1.9,1.9,1.9h17.2c1,0,1.9-0.9,1.9-1.9V4.3C21.5,3.3,20.6,2.4,19.6,2.4z M7.2,15.8v3.8H5.3v-3.8H2.4L6.2,12l3.8,3.8H7.2z M11,10H2.4V8.1H11V10z M11,6.2H2.4V4.3H11V6.2zM15.9,18.6L12,14.8h2.9V11h1.9v3.8h2.9L15.9,18.6z"></path>
	</g>
</svg>