<svg xmlns="http://www.w3.org/2000/svg" width="36" height="36" viewBox="0 0 36 36">
    <g fill="none" fill-rule="evenodd">
        <circle cx="18" cy="18" r="16" fill="#04BE5B" stroke="#04BE5B" stroke-width="4"/>
        <path fill="#FFF" d="M17.11 24.441c-.35.346-.833.559-1.368.559a1.943 1.943 0 0 1-1.37-.559l-5.805-5.728A1.886 1.886 0 0 1 8 17.363c0-1.054.867-1.908 1.935-1.908.534 0 1.018.214 1.37.56l4.437 4.377 8.954-8.832c.35-.345.835-.56 1.369-.56 1.068 0 1.935.855 1.935 1.909a1.89 1.89 0 0 1-.568 1.35L17.111 24.441z"/>
    </g>
</svg>
