<svg xmlns="http://www.w3.org/2000/svg" width="24" height="24" viewBox="0 0 24 24">
    <g fill="none" fill-rule="evenodd">
        <circle cx="12" cy="12" r="10" fill="#04BE5B" stroke="#04BE5B" stroke-width="4"/>
        <path fill="#FFF" d="M11.407 16.294c-.233.23-.556.373-.912.373-.357 0-.68-.142-.913-.373l-3.87-3.818a1.257 1.257 0 0 1-.379-.9c0-.703.578-1.273 1.29-1.273.357 0 .68.143.913.374l2.959 2.918 5.969-5.888c.233-.23.556-.374.913-.374.712 0 1.29.57 1.29 1.273 0 .352-.145.67-.379.9l-6.881 6.788z"/>
    </g>
</svg>
