<?xml version="1.0" encoding="UTF-8" standalone="no"?>
<!DOCTYPE svg PUBLIC "-//W3C//DTD SVG 1.1//EN"
 "http://www.w3.org/Graphics/SVG/1.1/DTD/svg11.dtd">
<!-- Generated by graphviz version 2.40.1 (20161225.0304)
 -->
<!-- Title: dependencies Pages: 1 -->
<svg width="4611pt" height="284pt"
 viewBox="0.00 0.00 4611.00 284.00" xmlns="http://www.w3.org/2000/svg" xmlns:xlink="http://www.w3.org/1999/xlink">
<g id="graph0" class="graph" transform="scale(1 1) rotate(0) translate(4 280)">
<title>dependencies</title>
<polygon fill="#ffffff" stroke="transparent" points="-4,4 -4,-280 4607,-280 4607,4 -4,4"/>
<text text-anchor="start" x="2280.5091" y="-42.4" font-family="sans-serif" font-weight="bold" font-size="14.00" fill="#000000">Legend</text>
<polygon fill="#ffffb3" stroke="transparent" points="2067.5,-10 2067.5,-30 2087.5,-30 2087.5,-10 2067.5,-10"/>
<text text-anchor="start" x="2091.129" y="-15.4" font-family="sans-serif" font-size="14.00" fill="#000000"> &#160;Declarations</text>
<polygon fill="#8dd3c7" stroke="transparent" points="2180.5,-10 2180.5,-30 2200.5,-30 2200.5,-10 2180.5,-10"/>
<text text-anchor="start" x="2204.2251" y="-15.4" font-family="sans-serif" font-size="14.00" fill="#000000"> &#160;Module</text>
<polygon fill="#80b1d3" stroke="transparent" points="2266.5,-10 2266.5,-30 2286.5,-30 2286.5,-10 2266.5,-10"/>
<text text-anchor="start" x="2290.2812" y="-15.4" font-family="sans-serif" font-size="14.00" fill="#000000"> &#160;Bootstrap</text>
<polygon fill="#fdb462" stroke="transparent" points="2363.5,-10 2363.5,-30 2383.5,-30 2383.5,-10 2363.5,-10"/>
<text text-anchor="start" x="2387.1732" y="-15.4" font-family="sans-serif" font-size="14.00" fill="#000000"> &#160;Providers</text>
<polygon fill="#fb8072" stroke="transparent" points="2459.5,-10 2459.5,-30 2479.5,-30 2479.5,-10 2459.5,-10"/>
<text text-anchor="start" x="2483.2258" y="-15.4" font-family="sans-serif" font-size="14.00" fill="#000000"> &#160;Exports</text>
<g id="clust1" class="cluster">
<title>cluster_TcCoreLibModule</title>
<polygon fill="none" stroke="#000000" stroke-dasharray="1,5" points="8,-70 8,-268 4595,-268 4595,-70 8,-70"/>
</g>
<g id="clust2" class="cluster">
<title>cluster_TcCoreLibModule_declarations</title>
<polygon fill="none" stroke="#000000" points="855,-78 855,-130 4587,-130 4587,-78 855,-78"/>
</g>
<g id="clust23" class="cluster">
<title>cluster_TcCoreLibModule_exports</title>
<polygon fill="none" stroke="#000000" points="537,-208 537,-260 4081,-260 4081,-208 537,-208"/>
</g>
<g id="clust25" class="cluster">
<title>cluster_TcCoreLibModule_providers</title>
<polygon fill="none" stroke="#000000" points="16,-78 16,-130 847,-130 847,-78 16,-78"/>
</g>
<!-- DurationSincePipe -->
<g id="node1" class="node">
<title>DurationSincePipe</title>
<polygon fill="#ffffb3" stroke="#000000" points="4578.7534,-122 4457.2466,-122 4457.2466,-86 4578.7534,-86 4578.7534,-122"/>
<text text-anchor="middle" x="4518" y="-99.8" font-family="Times,serif" font-size="14.00" fill="#000000">DurationSincePipe</text>
</g>
<!-- TcCoreLibModule -->
<g id="node20" class="node">
<title>TcCoreLibModule</title>
<polygon fill="#8dd3c7" stroke="#000000" points="2732.472,-187 2729.472,-191 2708.472,-191 2705.472,-187 2611.528,-187 2611.528,-151 2732.472,-151 2732.472,-187"/>
<text text-anchor="middle" x="2672" y="-164.8" font-family="Times,serif" font-size="14.00" fill="#000000">TcCoreLibModule</text>
</g>
<!-- DurationSincePipe&#45;&gt;TcCoreLibModule -->
<g id="edge1" class="edge">
<title>DurationSincePipe&#45;&gt;TcCoreLibModule</title>
<path fill="none" stroke="#000000" d="M4518,-122.308C4518,-142.1455 4518,-171 4518,-171 4518,-171 2742.6318,-171 2742.6318,-171"/>
<polygon fill="#000000" stroke="#000000" points="2742.6318,-167.5001 2732.6318,-171 2742.6318,-174.5001 2742.6318,-167.5001"/>
</g>
<!-- EllipsisPipe -->
<g id="node2" class="node">
<title>EllipsisPipe</title>
<polygon fill="#ffffb3" stroke="#000000" points="4439.3921,-122 4356.6079,-122 4356.6079,-86 4439.3921,-86 4439.3921,-122"/>
<text text-anchor="middle" x="4398" y="-99.8" font-family="Times,serif" font-size="14.00" fill="#000000">EllipsisPipe</text>
</g>
<!-- EllipsisPipe&#45;&gt;TcCoreLibModule -->
<g id="edge2" class="edge">
<title>EllipsisPipe&#45;&gt;TcCoreLibModule</title>
<path fill="none" stroke="#000000" d="M4398,-122.1061C4398,-141.3391 4398,-169 4398,-169 4398,-169 2742.6695,-169 2742.6695,-169"/>
<polygon fill="#000000" stroke="#000000" points="2742.6695,-165.5001 2732.6695,-169 2742.6695,-172.5001 2742.6695,-165.5001"/>
</g>
<!-- HighlightPipe -->
<g id="node3" class="node">
<title>HighlightPipe</title>
<polygon fill="#ffffb3" stroke="#000000" points="4338.0578,-122 4243.9422,-122 4243.9422,-86 4338.0578,-86 4338.0578,-122"/>
<text text-anchor="middle" x="4291" y="-99.8" font-family="Times,serif" font-size="14.00" fill="#000000">HighlightPipe</text>
</g>
<!-- HighlightPipe&#45;&gt;TcCoreLibModule -->
<g id="edge3" class="edge">
<title>HighlightPipe&#45;&gt;TcCoreLibModule</title>
<path fill="none" stroke="#000000" d="M4291,-122.1686C4291,-141.0898 4291,-168 4291,-168 4291,-168 2742.5119,-168 2742.5119,-168"/>
<polygon fill="#000000" stroke="#000000" points="2742.5119,-164.5001 2732.5119,-168 2742.5119,-171.5001 2742.5119,-164.5001"/>
</g>
<!-- OnCreateDirective -->
<g id="node4" class="node">
<title>OnCreateDirective</title>
<polygon fill="#ffffb3" stroke="#000000" points="4225.7213,-122 4104.2787,-122 4104.2787,-86 4225.7213,-86 4225.7213,-122"/>
<text text-anchor="middle" x="4165" y="-99.8" font-family="Times,serif" font-size="14.00" fill="#000000">OnCreateDirective</text>
</g>
<!-- OnCreateDirective&#45;&gt;TcCoreLibModule -->
<g id="edge4" class="edge">
<title>OnCreateDirective&#45;&gt;TcCoreLibModule</title>
<path fill="none" stroke="#000000" d="M4165,-122.2667C4165,-140.5552 4165,-166 4165,-166 4165,-166 2742.8428,-166 2742.8428,-166"/>
<polygon fill="#000000" stroke="#000000" points="2742.8429,-162.5001 2732.8428,-166 2742.8428,-169.5001 2742.8429,-162.5001"/>
</g>
<!-- OrderByDatePipe -->
<g id="node5" class="node">
<title>OrderByDatePipe</title>
<polygon fill="#ffffb3" stroke="#000000" points="4086.2936,-122 3969.7064,-122 3969.7064,-86 4086.2936,-86 4086.2936,-122"/>
<text text-anchor="middle" x="4028" y="-99.8" font-family="Times,serif" font-size="14.00" fill="#000000">OrderByDatePipe</text>
</g>
<!-- OrderByDatePipe&#45;&gt;TcCoreLibModule -->
<g id="edge5" class="edge">
<title>OrderByDatePipe&#45;&gt;TcCoreLibModule</title>
<path fill="none" stroke="#000000" d="M4021.24,-122.002C4021.24,-139.6754 4021.24,-164 4021.24,-164 4021.24,-164 2742.5952,-164 2742.5952,-164"/>
<polygon fill="#000000" stroke="#000000" points="2742.5952,-160.5001 2732.5952,-164 2742.5952,-167.5001 2742.5952,-160.5001"/>
</g>
<!-- ReversePipe -->
<g id="node6" class="node">
<title>ReversePipe</title>
<polygon fill="#ffffb3" stroke="#000000" points="3951.9734,-122 3866.0266,-122 3866.0266,-86 3951.9734,-86 3951.9734,-122"/>
<text text-anchor="middle" x="3909" y="-99.8" font-family="Times,serif" font-size="14.00" fill="#000000">ReversePipe</text>
</g>
<!-- ReversePipe&#45;&gt;TcCoreLibModule -->
<g id="edge6" class="edge">
<title>ReversePipe&#45;&gt;TcCoreLibModule</title>
<path fill="none" stroke="#000000" d="M3897.6047,-122.0336C3897.6047,-139.0597 3897.6047,-162 3897.6047,-162 3897.6047,-162 2742.7779,-162 2742.7779,-162"/>
<polygon fill="#000000" stroke="#000000" points="2742.778,-158.5001 2732.7779,-162 2742.7779,-165.5001 2742.778,-158.5001"/>
</g>
<!-- TibcoCloudConfigurationComponent -->
<g id="node7" class="node">
<title>TibcoCloudConfigurationComponent</title>
<polygon fill="#ffffb3" stroke="#000000" points="3848.2617,-122 3621.7383,-122 3621.7383,-86 3848.2617,-86 3848.2617,-122"/>
<text text-anchor="middle" x="3735" y="-99.8" font-family="Times,serif" font-size="14.00" fill="#000000">TibcoCloudConfigurationComponent</text>
</g>
<!-- TibcoCloudConfigurationComponent&#45;&gt;TcCoreLibModule -->
<g id="edge7" class="edge">
<title>TibcoCloudConfigurationComponent&#45;&gt;TcCoreLibModule</title>
<path fill="none" stroke="#000000" d="M3665.1149,-122.027C3665.1149,-138.3976 3665.1149,-160 3665.1149,-160 3665.1149,-160 2742.6288,-160 2742.6288,-160"/>
<polygon fill="#000000" stroke="#000000" points="2742.6289,-156.5001 2732.6288,-160 2742.6288,-163.5001 2742.6289,-156.5001"/>
</g>
<!-- TibcoCloudErrorComponent -->
<g id="node8" class="node">
<title>TibcoCloudErrorComponent</title>
<polygon fill="#ffffb3" stroke="#000000" points="3603.752,-122 3426.248,-122 3426.248,-86 3603.752,-86 3603.752,-122"/>
<text text-anchor="middle" x="3515" y="-99.8" font-family="Times,serif" font-size="14.00" fill="#000000">TibcoCloudErrorComponent</text>
</g>
<!-- TibcoCloudErrorComponent&#45;&gt;TcCoreLibModule -->
<g id="edge8" class="edge">
<title>TibcoCloudErrorComponent&#45;&gt;TcCoreLibModule</title>
<path fill="none" stroke="#000000" d="M3435.9201,-122.0091C3435.9201,-138.0494 3435.9201,-159 3435.9201,-159 3435.9201,-159 2742.5821,-159 2742.5821,-159"/>
<polygon fill="#000000" stroke="#000000" points="2742.5821,-155.5001 2732.5821,-159 2742.582,-162.5001 2742.5821,-155.5001"/>
</g>
<!-- TibcoCloudLoginComponent -->
<g id="node9" class="node">
<title>TibcoCloudLoginComponent</title>
<polygon fill="#ffffb3" stroke="#000000" points="3407.6609,-122 3226.3391,-122 3226.3391,-86 3407.6609,-86 3407.6609,-122"/>
<text text-anchor="middle" x="3317" y="-99.8" font-family="Times,serif" font-size="14.00" fill="#000000">TibcoCloudLoginComponent</text>
</g>
<!-- TibcoCloudLoginComponent&#45;&gt;TcCoreLibModule -->
<g id="edge9" class="edge">
<title>TibcoCloudLoginComponent&#45;&gt;TcCoreLibModule</title>
<path fill="none" stroke="#000000" d="M3272.6502,-122.2396C3272.6502,-137.5706 3272.6502,-157 3272.6502,-157 3272.6502,-157 2742.6206,-157 2742.6206,-157"/>
<polygon fill="#000000" stroke="#000000" points="2742.6207,-153.5001 2732.6206,-157 2742.6206,-160.5001 2742.6207,-153.5001"/>
</g>
<!-- TibcoCloudMenuBarComponent -->
<g id="node10" class="node">
<title>TibcoCloudMenuBarComponent</title>
<polygon fill="#ffffb3" stroke="#000000" points="3208.5884,-122 3007.4116,-122 3007.4116,-86 3208.5884,-86 3208.5884,-122"/>
<text text-anchor="middle" x="3108" y="-99.8" font-family="Times,serif" font-size="14.00" fill="#000000">TibcoCloudMenuBarComponent</text>
</g>
<!-- TibcoCloudMenuBarComponent&#45;&gt;TcCoreLibModule -->
<g id="edge10" class="edge">
<title>TibcoCloudMenuBarComponent&#45;&gt;TcCoreLibModule</title>
<path fill="none" stroke="#000000" d="M3039.0409,-122.1243C3039.0409,-136.7832 3039.0409,-155 3039.0409,-155 3039.0409,-155 2742.6093,-155 2742.6093,-155"/>
<polygon fill="#000000" stroke="#000000" points="2742.6094,-151.5001 2732.6093,-155 2742.6093,-158.5001 2742.6094,-151.5001"/>
</g>
<!-- TibcoCloudNavbarComponent -->
<g id="node11" class="node">
<title>TibcoCloudNavbarComponent</title>
<polygon fill="#ffffb3" stroke="#000000" points="2989.9143,-122 2800.0857,-122 2800.0857,-86 2989.9143,-86 2989.9143,-122"/>
<text text-anchor="middle" x="2895" y="-99.8" font-family="Times,serif" font-size="14.00" fill="#000000">TibcoCloudNavbarComponent</text>
</g>
<!-- TibcoCloudNavbarComponent&#45;&gt;TcCoreLibModule -->
<g id="edge11" class="edge">
<title>TibcoCloudNavbarComponent&#45;&gt;TcCoreLibModule</title>
<path fill="none" stroke="#000000" d="M2835.9367,-122.2458C2835.9367,-136.1772 2835.9367,-153 2835.9367,-153 2835.9367,-153 2742.5782,-153 2742.5782,-153"/>
<polygon fill="#000000" stroke="#000000" points="2742.5782,-149.5001 2732.5782,-153 2742.5782,-156.5001 2742.5782,-149.5001"/>
</g>
<!-- TibcoCloudNewElementComponent -->
<g id="node12" class="node">
<title>TibcoCloudNewElementComponent</title>
<polygon fill="#ffffb3" stroke="#000000" points="2782.799,-122 2561.201,-122 2561.201,-86 2782.799,-86 2782.799,-122"/>
<text text-anchor="middle" x="2672" y="-99.8" font-family="Times,serif" font-size="14.00" fill="#000000">TibcoCloudNewElementComponent</text>
</g>
<!-- TibcoCloudNewElementComponent&#45;&gt;TcCoreLibModule -->
<g id="edge12" class="edge">
<title>TibcoCloudNewElementComponent&#45;&gt;TcCoreLibModule</title>
<path fill="none" stroke="#000000" d="M2672,-122.1061C2672,-122.1061 2672,-140.991 2672,-140.991"/>
<polygon fill="#000000" stroke="#000000" points="2668.5001,-140.9909 2672,-150.991 2675.5001,-140.991 2668.5001,-140.9909"/>
</g>
<!-- TibcoCloudSelectTableComponent -->
<g id="node13" class="node">
<title>TibcoCloudSelectTableComponent</title>
<polygon fill="#ffffb3" stroke="#000000" points="2543.2976,-122 2328.7024,-122 2328.7024,-86 2543.2976,-86 2543.2976,-122"/>
<text text-anchor="middle" x="2436" y="-99.8" font-family="Times,serif" font-size="14.00" fill="#000000">TibcoCloudSelectTableComponent</text>
</g>
<!-- TibcoCloudSelectTableComponent&#45;&gt;TcCoreLibModule -->
<g id="edge13" class="edge">
<title>TibcoCloudSelectTableComponent&#45;&gt;TcCoreLibModule</title>
<path fill="none" stroke="#000000" d="M2503.4273,-122.2458C2503.4273,-136.1772 2503.4273,-153 2503.4273,-153 2503.4273,-153 2601.1414,-153 2601.1414,-153"/>
<polygon fill="#000000" stroke="#000000" points="2601.1414,-156.5001 2611.1414,-153 2601.1413,-149.5001 2601.1414,-156.5001"/>
</g>
<!-- TibcoCloudSettingLandingComponent -->
<g id="node14" class="node">
<title>TibcoCloudSettingLandingComponent</title>
<polygon fill="#ffffb3" stroke="#000000" points="2311.0446,-122 2076.9554,-122 2076.9554,-86 2311.0446,-86 2311.0446,-122"/>
<text text-anchor="middle" x="2194" y="-99.8" font-family="Times,serif" font-size="14.00" fill="#000000">TibcoCloudSettingLandingComponent</text>
</g>
<!-- TibcoCloudSettingLandingComponent&#45;&gt;TcCoreLibModule -->
<g id="edge14" class="edge">
<title>TibcoCloudSettingLandingComponent&#45;&gt;TcCoreLibModule</title>
<path fill="none" stroke="#000000" d="M2281.9076,-122.1243C2281.9076,-136.7832 2281.9076,-155 2281.9076,-155 2281.9076,-155 2601.4761,-155 2601.4761,-155"/>
<polygon fill="#000000" stroke="#000000" points="2601.4761,-158.5001 2611.4761,-155 2601.476,-151.5001 2601.4761,-158.5001"/>
</g>
<!-- TibcoCloudSettingMenuEntryComponent -->
<g id="node15" class="node">
<title>TibcoCloudSettingMenuEntryComponent</title>
<polygon fill="#ffffb3" stroke="#000000" points="2058.6496,-122 1807.3504,-122 1807.3504,-86 2058.6496,-86 2058.6496,-122"/>
<text text-anchor="middle" x="1933" y="-99.8" font-family="Times,serif" font-size="14.00" fill="#000000">TibcoCloudSettingMenuEntryComponent</text>
</g>
<!-- TibcoCloudSettingMenuEntryComponent&#45;&gt;TcCoreLibModule -->
<g id="edge15" class="edge">
<title>TibcoCloudSettingMenuEntryComponent&#45;&gt;TcCoreLibModule</title>
<path fill="none" stroke="#000000" d="M2034.2127,-122.2396C2034.2127,-137.5706 2034.2127,-157 2034.2127,-157 2034.2127,-157 2601.4235,-157 2601.4235,-157"/>
<polygon fill="#000000" stroke="#000000" points="2601.4236,-160.5001 2611.4235,-157 2601.4235,-153.5001 2601.4236,-160.5001"/>
</g>
<!-- TibcoCloudSettingsGeneralComponent -->
<g id="node16" class="node">
<title>TibcoCloudSettingsGeneralComponent</title>
<polygon fill="#ffffb3" stroke="#000000" points="1788.6329,-122 1551.3671,-122 1551.3671,-86 1788.6329,-86 1788.6329,-122"/>
<text text-anchor="middle" x="1670" y="-99.8" font-family="Times,serif" font-size="14.00" fill="#000000">TibcoCloudSettingsGeneralComponent</text>
</g>
<!-- TibcoCloudSettingsGeneralComponent&#45;&gt;TcCoreLibModule -->
<g id="edge16" class="edge">
<title>TibcoCloudSettingsGeneralComponent&#45;&gt;TcCoreLibModule</title>
<path fill="none" stroke="#000000" d="M1781.4588,-122.0091C1781.4588,-138.0494 1781.4588,-159 1781.4588,-159 1781.4588,-159 2601.4896,-159 2601.4896,-159"/>
<polygon fill="#000000" stroke="#000000" points="2601.4897,-162.5001 2611.4896,-159 2601.4896,-155.5001 2601.4897,-162.5001"/>
</g>
<!-- TibcoCloudSplashScreenComponent -->
<g id="node17" class="node">
<title>TibcoCloudSplashScreenComponent</title>
<polygon fill="#ffffb3" stroke="#000000" points="1532.6371,-122 1309.3629,-122 1309.3629,-86 1532.6371,-86 1532.6371,-122"/>
<text text-anchor="middle" x="1421" y="-99.8" font-family="Times,serif" font-size="14.00" fill="#000000">TibcoCloudSplashScreenComponent</text>
</g>
<!-- TibcoCloudSplashScreenComponent&#45;&gt;TcCoreLibModule -->
<g id="edge17" class="edge">
<title>TibcoCloudSplashScreenComponent&#45;&gt;TcCoreLibModule</title>
<path fill="none" stroke="#000000" d="M1517.1219,-122.027C1517.1219,-138.3976 1517.1219,-160 1517.1219,-160 1517.1219,-160 2601.13,-160 2601.13,-160"/>
<polygon fill="#000000" stroke="#000000" points="2601.1301,-163.5001 2611.13,-160 2601.13,-156.5001 2601.1301,-163.5001"/>
</g>
<!-- TibcoCloudTableComponent -->
<g id="node18" class="node">
<title>TibcoCloudTableComponent</title>
<polygon fill="#ffffb3" stroke="#000000" points="1291.0898,-122 1110.9102,-122 1110.9102,-86 1291.0898,-86 1291.0898,-122"/>
<text text-anchor="middle" x="1201" y="-99.8" font-family="Times,serif" font-size="14.00" fill="#000000">TibcoCloudTableComponent</text>
</g>
<!-- TibcoCloudTableComponent&#45;&gt;TcCoreLibModule -->
<g id="edge18" class="edge">
<title>TibcoCloudTableComponent&#45;&gt;TcCoreLibModule</title>
<path fill="none" stroke="#000000" d="M1266.7393,-122.0336C1266.7393,-139.0597 1266.7393,-162 1266.7393,-162 1266.7393,-162 2601.1667,-162 2601.1667,-162"/>
<polygon fill="#000000" stroke="#000000" points="2601.1667,-165.5001 2611.1667,-162 2601.1666,-158.5001 2601.1667,-165.5001"/>
</g>
<!-- TibcoCloudWidgetHeaderComponent -->
<g id="node19" class="node">
<title>TibcoCloudWidgetHeaderComponent</title>
<polygon fill="#ffffb3" stroke="#000000" points="1092.8389,-122 863.1611,-122 863.1611,-86 1092.8389,-86 1092.8389,-122"/>
<text text-anchor="middle" x="978" y="-99.8" font-family="Times,serif" font-size="14.00" fill="#000000">TibcoCloudWidgetHeaderComponent</text>
</g>
<!-- TibcoCloudWidgetHeaderComponent&#45;&gt;TcCoreLibModule -->
<g id="edge19" class="edge">
<title>TibcoCloudWidgetHeaderComponent&#45;&gt;TcCoreLibModule</title>
<path fill="none" stroke="#000000" d="M1045.1755,-122.002C1045.1755,-139.6754 1045.1755,-164 1045.1755,-164 1045.1755,-164 2601.1957,-164 2601.1957,-164"/>
<polygon fill="#000000" stroke="#000000" points="2601.1957,-167.5001 2611.1957,-164 2601.1956,-160.5001 2601.1957,-167.5001"/>
</g>
<!-- DurationSincePipe  -->
<g id="node21" class="node">
<title>DurationSincePipe </title>
<polygon fill="#fb8072" stroke="#000000" points="4072.7535,-252 3947.2465,-252 3947.2465,-216 4072.7535,-216 4072.7535,-252"/>
<text text-anchor="middle" x="4010" y="-229.8" font-family="Times,serif" font-size="14.00" fill="#000000">DurationSincePipe </text>
</g>
<!-- TcCoreLibModule&#45;&gt;DurationSincePipe  -->
<g id="edge20" class="edge">
<title>TcCoreLibModule&#45;&gt;DurationSincePipe </title>
<path fill="none" stroke="#000000" stroke-dasharray="5,2" d="M2732.8687,-173C2988.3565,-173 3960.9201,-173 3960.9201,-173 3960.9201,-173 3960.9201,-205.698 3960.9201,-205.698"/>
<polygon fill="#000000" stroke="#000000" points="3957.4201,-205.698 3960.9201,-215.698 3964.4201,-205.698 3957.4201,-205.698"/>
</g>
<!-- EllipsisPipe  -->
<g id="node22" class="node">
<title>EllipsisPipe </title>
<polygon fill="#fb8072" stroke="#000000" points="3929.3929,-252 3842.6071,-252 3842.6071,-216 3929.3929,-216 3929.3929,-252"/>
<text text-anchor="middle" x="3886" y="-229.8" font-family="Times,serif" font-size="14.00" fill="#000000">EllipsisPipe </text>
</g>
<!-- TcCoreLibModule&#45;&gt;EllipsisPipe  -->
<g id="edge21" class="edge">
<title>TcCoreLibModule&#45;&gt;EllipsisPipe </title>
<path fill="none" stroke="#000000" stroke-dasharray="5,2" d="M2732.8139,-175C2974.9225,-175 3857.1971,-175 3857.1971,-175 3857.1971,-175 3857.1971,-205.9775 3857.1971,-205.9775"/>
<polygon fill="#000000" stroke="#000000" points="3853.6971,-205.9774 3857.1971,-215.9775 3860.6971,-205.9775 3853.6971,-205.9774"/>
</g>
<!-- HighlightPipe  -->
<g id="node23" class="node">
<title>HighlightPipe </title>
<polygon fill="#fb8072" stroke="#000000" points="3825.0568,-252 3726.9432,-252 3726.9432,-216 3825.0568,-216 3825.0568,-252"/>
<text text-anchor="middle" x="3776" y="-229.8" font-family="Times,serif" font-size="14.00" fill="#000000">HighlightPipe </text>
</g>
<!-- TcCoreLibModule&#45;&gt;HighlightPipe  -->
<g id="edge22" class="edge">
<title>TcCoreLibModule&#45;&gt;HighlightPipe </title>
<path fill="none" stroke="#000000" stroke-dasharray="5,2" d="M2732.5336,-177C2963.4451,-177 3776,-177 3776,-177 3776,-177 3776,-205.9648 3776,-205.9648"/>
<polygon fill="#000000" stroke="#000000" points="3772.5001,-205.9648 3776,-215.9648 3779.5001,-205.9649 3772.5001,-205.9648"/>
</g>
<!-- OnCreateDirective  -->
<g id="node24" class="node">
<title>OnCreateDirective </title>
<polygon fill="#fb8072" stroke="#000000" points="3708.7212,-252 3583.2788,-252 3583.2788,-216 3708.7212,-216 3708.7212,-252"/>
<text text-anchor="middle" x="3646" y="-229.8" font-family="Times,serif" font-size="14.00" fill="#000000">OnCreateDirective </text>
</g>
<!-- TcCoreLibModule&#45;&gt;OnCreateDirective  -->
<g id="edge23" class="edge">
<title>TcCoreLibModule&#45;&gt;OnCreateDirective </title>
<path fill="none" stroke="#000000" stroke-dasharray="5,2" d="M2732.8273,-178C2938.2686,-178 3593.6327,-178 3593.6327,-178 3593.6327,-178 3593.6327,-205.973 3593.6327,-205.973"/>
<polygon fill="#000000" stroke="#000000" points="3590.1328,-205.973 3593.6327,-215.973 3597.1328,-205.973 3590.1328,-205.973"/>
</g>
<!-- OrderByDatePipe  -->
<g id="node25" class="node">
<title>OrderByDatePipe </title>
<polygon fill="#fb8072" stroke="#000000" points="3564.7934,-252 3445.2066,-252 3445.2066,-216 3564.7934,-216 3564.7934,-252"/>
<text text-anchor="middle" x="3505" y="-229.8" font-family="Times,serif" font-size="14.00" fill="#000000">OrderByDatePipe </text>
</g>
<!-- TcCoreLibModule&#45;&gt;OrderByDatePipe  -->
<g id="edge24" class="edge">
<title>TcCoreLibModule&#45;&gt;OrderByDatePipe </title>
<path fill="none" stroke="#000000" stroke-dasharray="5,2" d="M2732.5783,-180C2924.2659,-180 3505,-180 3505,-180 3505,-180 3505,-205.7181 3505,-205.7181"/>
<polygon fill="#000000" stroke="#000000" points="3501.5001,-205.718 3505,-215.7181 3508.5001,-205.7181 3501.5001,-205.718"/>
</g>
<!-- ReversePipe  -->
<g id="node26" class="node">
<title>ReversePipe </title>
<polygon fill="#fb8072" stroke="#000000" points="3426.9747,-252 3337.0253,-252 3337.0253,-216 3426.9747,-216 3426.9747,-252"/>
<text text-anchor="middle" x="3382" y="-229.8" font-family="Times,serif" font-size="14.00" fill="#000000">ReversePipe </text>
</g>
<!-- TcCoreLibModule&#45;&gt;ReversePipe  -->
<g id="edge25" class="edge">
<title>TcCoreLibModule&#45;&gt;ReversePipe </title>
<path fill="none" stroke="#000000" stroke-dasharray="5,2" d="M2732.6387,-182C2902.8221,-182 3372.5468,-182 3372.5468,-182 3372.5468,-182 3372.5468,-205.8129 3372.5468,-205.8129"/>
<polygon fill="#000000" stroke="#000000" points="3369.0469,-205.8129 3372.5468,-215.8129 3376.0469,-205.813 3369.0469,-205.8129"/>
</g>
<!-- TibcoCloudConfigurationComponent  -->
<g id="node27" class="node">
<title>TibcoCloudConfigurationComponent </title>
<polygon fill="#fb8072" stroke="#000000" points="3319.2617,-252 3088.7383,-252 3088.7383,-216 3319.2617,-216 3319.2617,-252"/>
<text text-anchor="middle" x="3204" y="-229.8" font-family="Times,serif" font-size="14.00" fill="#000000">TibcoCloudConfigurationComponent </text>
</g>
<!-- TcCoreLibModule&#45;&gt;TibcoCloudConfigurationComponent  -->
<g id="edge26" class="edge">
<title>TcCoreLibModule&#45;&gt;TibcoCloudConfigurationComponent </title>
<path fill="none" stroke="#000000" stroke-dasharray="5,2" d="M2732.8594,-184C2861.3736,-184 3148.7067,-184 3148.7067,-184 3148.7067,-184 3148.7067,-205.9489 3148.7067,-205.9489"/>
<polygon fill="#000000" stroke="#000000" points="3145.2068,-205.9488 3148.7067,-215.9489 3152.2068,-205.9489 3145.2068,-205.9488"/>
</g>
<!-- TibcoCloudErrorComponent  -->
<g id="node28" class="node">
<title>TibcoCloudErrorComponent </title>
<polygon fill="#fb8072" stroke="#000000" points="3070.752,-252 2889.248,-252 2889.248,-216 3070.752,-216 3070.752,-252"/>
<text text-anchor="middle" x="2980" y="-229.8" font-family="Times,serif" font-size="14.00" fill="#000000">TibcoCloudErrorComponent </text>
</g>
<!-- TcCoreLibModule&#45;&gt;TibcoCloudErrorComponent  -->
<g id="edge27" class="edge">
<title>TcCoreLibModule&#45;&gt;TibcoCloudErrorComponent </title>
<path fill="none" stroke="#000000" stroke-dasharray="5,2" d="M2732.7091,-186C2811.6447,-186 2939.5405,-186 2939.5405,-186 2939.5405,-186 2939.5405,-205.8533 2939.5405,-205.8533"/>
<polygon fill="#000000" stroke="#000000" points="2936.0406,-205.8532 2939.5405,-215.8533 2943.0406,-205.8533 2936.0406,-205.8532"/>
</g>
<!-- TibcoCloudLoginComponent  -->
<g id="node29" class="node">
<title>TibcoCloudLoginComponent </title>
<polygon fill="#fb8072" stroke="#000000" points="2871.6607,-252 2686.3393,-252 2686.3393,-216 2871.6607,-216 2871.6607,-252"/>
<text text-anchor="middle" x="2779" y="-229.8" font-family="Times,serif" font-size="14.00" fill="#000000">TibcoCloudLoginComponent </text>
</g>
<!-- TcCoreLibModule&#45;&gt;TibcoCloudLoginComponent  -->
<g id="edge28" class="edge">
<title>TcCoreLibModule&#45;&gt;TibcoCloudLoginComponent </title>
<path fill="none" stroke="#000000" stroke-dasharray="5,2" d="M2709.4528,-187.1061C2709.4528,-187.1061 2709.4528,-205.991 2709.4528,-205.991"/>
<polygon fill="#000000" stroke="#000000" points="2705.9529,-205.9909 2709.4528,-215.991 2712.9529,-205.991 2705.9529,-205.9909"/>
</g>
<!-- TibcoCloudMenuBarComponent  -->
<g id="node30" class="node">
<title>TibcoCloudMenuBarComponent </title>
<polygon fill="#fb8072" stroke="#000000" points="2668.0888,-252 2463.9112,-252 2463.9112,-216 2668.0888,-216 2668.0888,-252"/>
<text text-anchor="middle" x="2566" y="-229.8" font-family="Times,serif" font-size="14.00" fill="#000000">TibcoCloudMenuBarComponent </text>
</g>
<!-- TcCoreLibModule&#45;&gt;TibcoCloudMenuBarComponent  -->
<g id="edge29" class="edge">
<title>TcCoreLibModule&#45;&gt;TibcoCloudMenuBarComponent </title>
<path fill="none" stroke="#000000" stroke-dasharray="5,2" d="M2639.9041,-187.1061C2639.9041,-187.1061 2639.9041,-205.991 2639.9041,-205.991"/>
<polygon fill="#000000" stroke="#000000" points="2636.4042,-205.9909 2639.9041,-215.991 2643.4042,-205.991 2636.4042,-205.9909"/>
</g>
<!-- TibcoCloudNavbarComponent  -->
<g id="node31" class="node">
<title>TibcoCloudNavbarComponent </title>
<polygon fill="#fb8072" stroke="#000000" points="2445.4138,-252 2252.5862,-252 2252.5862,-216 2445.4138,-216 2445.4138,-252"/>
<text text-anchor="middle" x="2349" y="-229.8" font-family="Times,serif" font-size="14.00" fill="#000000">TibcoCloudNavbarComponent </text>
</g>
<!-- TcCoreLibModule&#45;&gt;TibcoCloudNavbarComponent  -->
<g id="edge30" class="edge">
<title>TcCoreLibModule&#45;&gt;TibcoCloudNavbarComponent </title>
<path fill="none" stroke="#000000" stroke-dasharray="5,2" d="M2611.2428,-186C2527.5867,-186 2387.1541,-186 2387.1541,-186 2387.1541,-186 2387.1541,-205.8533 2387.1541,-205.8533"/>
<polygon fill="#000000" stroke="#000000" points="2383.6542,-205.8532 2387.1541,-215.8533 2390.6542,-205.8533 2383.6542,-205.8532"/>
</g>
<!-- TibcoCloudNewElementComponent  -->
<g id="node32" class="node">
<title>TibcoCloudNewElementComponent </title>
<polygon fill="#fb8072" stroke="#000000" points="2234.2989,-252 2009.7011,-252 2009.7011,-216 2234.2989,-216 2234.2989,-252"/>
<text text-anchor="middle" x="2122" y="-229.8" font-family="Times,serif" font-size="14.00" fill="#000000">TibcoCloudNewElementComponent </text>
</g>
<!-- TcCoreLibModule&#45;&gt;TibcoCloudNewElementComponent  -->
<g id="edge31" class="edge">
<title>TcCoreLibModule&#45;&gt;TibcoCloudNewElementComponent </title>
<path fill="none" stroke="#000000" stroke-dasharray="5,2" d="M2611.4937,-184C2475.1204,-184 2155.5637,-184 2155.5637,-184 2155.5637,-184 2155.5637,-205.9489 2155.5637,-205.9489"/>
<polygon fill="#000000" stroke="#000000" points="2152.0637,-205.9488 2155.5637,-215.9489 2159.0637,-205.9489 2152.0637,-205.9488"/>
</g>
<!-- TibcoCloudSelectTableComponent  -->
<g id="node33" class="node">
<title>TibcoCloudSelectTableComponent </title>
<polygon fill="#fb8072" stroke="#000000" points="1991.7975,-252 1774.2025,-252 1774.2025,-216 1991.7975,-216 1991.7975,-252"/>
<text text-anchor="middle" x="1883" y="-229.8" font-family="Times,serif" font-size="14.00" fill="#000000">TibcoCloudSelectTableComponent </text>
</g>
<!-- TcCoreLibModule&#45;&gt;TibcoCloudSelectTableComponent  -->
<g id="edge32" class="edge">
<title>TcCoreLibModule&#45;&gt;TibcoCloudSelectTableComponent </title>
<path fill="none" stroke="#000000" stroke-dasharray="5,2" d="M2611.3861,-182C2429.2852,-182 1899.537,-182 1899.537,-182 1899.537,-182 1899.537,-205.8129 1899.537,-205.8129"/>
<polygon fill="#000000" stroke="#000000" points="1896.0371,-205.8129 1899.537,-215.8129 1903.0371,-205.813 1896.0371,-205.8129"/>
</g>
<!-- TibcoCloudSettingMenuEntryComponent  -->
<g id="node34" class="node">
<title>TibcoCloudSettingMenuEntryComponent </title>
<polygon fill="#fb8072" stroke="#000000" points="1756.6494,-252 1501.3506,-252 1501.3506,-216 1756.6494,-216 1756.6494,-252"/>
<text text-anchor="middle" x="1629" y="-229.8" font-family="Times,serif" font-size="14.00" fill="#000000">TibcoCloudSettingMenuEntryComponent </text>
</g>
<!-- TcCoreLibModule&#45;&gt;TibcoCloudSettingMenuEntryComponent  -->
<g id="edge33" class="edge">
<title>TcCoreLibModule&#45;&gt;TibcoCloudSettingMenuEntryComponent </title>
<path fill="none" stroke="#000000" stroke-dasharray="5,2" d="M2611.3609,-180C2392.1783,-180 1653.8792,-180 1653.8792,-180 1653.8792,-180 1653.8792,-205.7181 1653.8792,-205.7181"/>
<polygon fill="#000000" stroke="#000000" points="1650.3793,-205.718 1653.8792,-215.7181 1657.3793,-205.7181 1650.3793,-205.718"/>
</g>
<!-- TibcoCloudSettingsGeneralComponent  -->
<g id="node35" class="node">
<title>TibcoCloudSettingsGeneralComponent </title>
<polygon fill="#fb8072" stroke="#000000" points="1483.6326,-252 1242.3674,-252 1242.3674,-216 1483.6326,-216 1483.6326,-252"/>
<text text-anchor="middle" x="1363" y="-229.8" font-family="Times,serif" font-size="14.00" fill="#000000">TibcoCloudSettingsGeneralComponent </text>
</g>
<!-- TcCoreLibModule&#45;&gt;TibcoCloudSettingsGeneralComponent  -->
<g id="edge34" class="edge">
<title>TcCoreLibModule&#45;&gt;TibcoCloudSettingsGeneralComponent </title>
<path fill="none" stroke="#000000" stroke-dasharray="5,2" d="M2611.3321,-178C2357.8246,-178 1396.374,-178 1396.374,-178 1396.374,-178 1396.374,-205.973 1396.374,-205.973"/>
<polygon fill="#000000" stroke="#000000" points="1392.874,-205.973 1396.374,-215.973 1399.874,-205.973 1392.874,-205.973"/>
</g>
<!-- TibcoCloudSplashScreenComponent  -->
<g id="node36" class="node">
<title>TibcoCloudSplashScreenComponent </title>
<polygon fill="#fb8072" stroke="#000000" points="1224.6368,-252 997.3632,-252 997.3632,-216 1224.6368,-216 1224.6368,-252"/>
<text text-anchor="middle" x="1111" y="-229.8" font-family="Times,serif" font-size="14.00" fill="#000000">TibcoCloudSplashScreenComponent </text>
</g>
<!-- TcCoreLibModule&#45;&gt;TibcoCloudSplashScreenComponent  -->
<g id="edge35" class="edge">
<title>TcCoreLibModule&#45;&gt;TibcoCloudSplashScreenComponent </title>
<path fill="none" stroke="#000000" stroke-dasharray="5,2" d="M2611.169,-177C2329.75,-177 1167.7618,-177 1167.7618,-177 1167.7618,-177 1167.7618,-205.9648 1167.7618,-205.9648"/>
<polygon fill="#000000" stroke="#000000" points="1164.2618,-205.9648 1167.7618,-215.9648 1171.2618,-205.9649 1164.2618,-205.9648"/>
</g>
<!-- TibcoCloudTableComponent  -->
<g id="node37" class="node">
<title>TibcoCloudTableComponent </title>
<polygon fill="#fb8072" stroke="#000000" points="979.5903,-252 796.4097,-252 796.4097,-216 979.5903,-216 979.5903,-252"/>
<text text-anchor="middle" x="888" y="-229.8" font-family="Times,serif" font-size="14.00" fill="#000000">TibcoCloudTableComponent </text>
</g>
<!-- TcCoreLibModule&#45;&gt;TibcoCloudTableComponent  -->
<g id="edge36" class="edge">
<title>TcCoreLibModule&#45;&gt;TibcoCloudTableComponent </title>
<path fill="none" stroke="#000000" stroke-dasharray="5,2" d="M2611.4877,-175C2303.1633,-175 921.4378,-175 921.4378,-175 921.4378,-175 921.4378,-205.9775 921.4378,-205.9775"/>
<polygon fill="#000000" stroke="#000000" points="917.9378,-205.9774 921.4378,-215.9775 924.9378,-205.9775 917.9378,-205.9774"/>
</g>
<!-- TibcoCloudWidgetHeaderComponent  -->
<g id="node38" class="node">
<title>TibcoCloudWidgetHeaderComponent </title>
<polygon fill="#fb8072" stroke="#000000" points="778.839,-252 545.161,-252 545.161,-216 778.839,-216 778.839,-252"/>
<text text-anchor="middle" x="662" y="-229.8" font-family="Times,serif" font-size="14.00" fill="#000000">TibcoCloudWidgetHeaderComponent </text>
</g>
<!-- TcCoreLibModule&#45;&gt;TibcoCloudWidgetHeaderComponent  -->
<g id="edge37" class="edge">
<title>TcCoreLibModule&#45;&gt;TibcoCloudWidgetHeaderComponent </title>
<path fill="none" stroke="#000000" stroke-dasharray="5,2" d="M2611.3096,-173C2281.1233,-173 715.7957,-173 715.7957,-173 715.7957,-173 715.7957,-205.698 715.7957,-205.698"/>
<polygon fill="#000000" stroke="#000000" points="712.2958,-205.698 715.7957,-215.698 719.2958,-205.698 712.2958,-205.698"/>
</g>
<!-- AuthErrorInterceptor -->
<g id="node39" class="node">
<title>AuthErrorInterceptor</title>
<ellipse fill="#fdb462" stroke="#000000" cx="746" cy="-104" rx="93.1562" ry="18"/>
<text text-anchor="middle" x="746" y="-99.8" font-family="Times,serif" font-size="14.00" fill="#000000">AuthErrorInterceptor</text>
</g>
<!-- AuthErrorInterceptor&#45;&gt;TcCoreLibModule -->
<g id="edge38" class="edge">
<title>AuthErrorInterceptor&#45;&gt;TcCoreLibModule</title>
<path fill="none" stroke="#000000" d="M817.6416,-115.6617C817.6416,-133.6216 817.6416,-166 817.6416,-166 817.6416,-166 2601.3564,-166 2601.3564,-166"/>
<polygon fill="#000000" stroke="#000000" points="2601.3565,-169.5001 2611.3564,-166 2601.3564,-162.5001 2601.3565,-169.5001"/>
</g>
<!-- CachingInterceptor -->
<g id="node40" class="node">
<title>CachingInterceptor</title>
<ellipse fill="#fdb462" stroke="#000000" cx="549" cy="-104" rx="85.6531" ry="18"/>
<text text-anchor="middle" x="549" y="-99.8" font-family="Times,serif" font-size="14.00" fill="#000000">CachingInterceptor</text>
</g>
<!-- CachingInterceptor&#45;&gt;TcCoreLibModule -->
<g id="edge39" class="edge">
<title>CachingInterceptor&#45;&gt;TcCoreLibModule</title>
<path fill="none" stroke="#000000" d="M589.9536,-119.8202C589.9536,-138.7725 589.9536,-168 589.9536,-168 589.9536,-168 2601.376,-168 2601.376,-168"/>
<polygon fill="#000000" stroke="#000000" points="2601.3761,-171.5001 2611.376,-168 2601.376,-164.5001 2601.3761,-171.5001"/>
</g>
<!-- RequestCacheService -->
<g id="node41" class="node">
<title>RequestCacheService</title>
<ellipse fill="#fdb462" stroke="#000000" cx="350" cy="-104" rx="95.4617" ry="18"/>
<text text-anchor="middle" x="350" y="-99.8" font-family="Times,serif" font-size="14.00" fill="#000000">RequestCacheService</text>
</g>
<!-- RequestCacheService&#45;&gt;TcCoreLibModule -->
<g id="edge40" class="edge">
<title>RequestCacheService&#45;&gt;TcCoreLibModule</title>
<path fill="none" stroke="#000000" d="M350,-122.1061C350,-141.3391 350,-169 350,-169 350,-169 2601.3824,-169 2601.3824,-169"/>
<polygon fill="#000000" stroke="#000000" points="2601.3824,-172.5001 2611.3824,-169 2601.3823,-165.5001 2601.3824,-172.5001"/>
</g>
<!-- TcButtonsHelperService -->
<g id="node42" class="node">
<title>TcButtonsHelperService</title>
<ellipse fill="#fdb462" stroke="#000000" cx="130" cy="-104" rx="106.4966" ry="18"/>
<text text-anchor="middle" x="130" y="-99.8" font-family="Times,serif" font-size="14.00" fill="#000000">TcButtonsHelperService</text>
</g>
<!-- TcButtonsHelperService&#45;&gt;TcCoreLibModule -->
<g id="edge41" class="edge">
<title>TcButtonsHelperService&#45;&gt;TcCoreLibModule</title>
<path fill="none" stroke="#000000" d="M130,-122.308C130,-142.1455 130,-171 130,-171 130,-171 2601.3601,-171 2601.3601,-171"/>
<polygon fill="#000000" stroke="#000000" points="2601.3602,-174.5001 2611.3601,-171 2601.3601,-167.5001 2601.3602,-174.5001"/>
</g>
</g>
</svg>
